<?xml version="1.0" encoding="utf-8"?>
<!-- Generator: Adobe Illustrator 26.0.0, SVG Export Plug-In . SVG Version: 6.00 Build 0)  -->
<svg version="1.1"
	 id="svg5" xmlns:inkscape="http://www.inkscape.org/namespaces/inkscape" xmlns:sodipodi="http://sodipodi.sourceforge.net/DTD/sodipodi-0.dtd" xmlns:svg="http://www.w3.org/2000/svg"
	 xmlns="http://www.w3.org/2000/svg" xmlns:xlink="http://www.w3.org/1999/xlink" x="0px" y="0px" viewBox="0 0 100 100"
	 style="enable-background:new 0 0 100 100;" xml:space="preserve">
<style type="text/css">
	.st0{fill:#0092E9;stroke:#90B9FF;stroke-width:8;stroke-miterlimit:10;}
</style>
<sodipodi:namedview  bordercolor="#666666" borderopacity="1.0" id="namedview7" inkscape:current-layer="layer1" inkscape:cx="124.14426" inkscape:cy="82.233353" inkscape:document-units="px" inkscape:pagecheckerboard="0" inkscape:pageopacity="0.0" inkscape:pageshadow="2" inkscape:window-height="1001" inkscape:window-maximized="1" inkscape:window-width="1920" inkscape:window-x="-9" inkscape:window-y="-9" inkscape:zoom="4.0920136" pagecolor="#ffffff" showgrid="false" units="px" width="100px">
	</sodipodi:namedview>
<g id="layer1" inkscape:groupmode="layer" inkscape:label="閸ユ儳鐪1">
	<path id="rect1440" class="st0" d="M32.3,5.3h36.2c14.9,0,27,12.1,27,27v35.5c0,14.9-12.1,27-27,27H32.3c-14.9,0-27-12.1-27-27
		V32.3C5.3,17.4,17.4,5.3,32.3,5.3z"/>
	<g id="text3748" transform="matrix(0.53695248,0,0,0.57154388,5.8020807,5.5499702)">
		<path id="path843" d="M88.3,26.6c-20.5,0.5-40.1,13.9-47.6,33c-5.6,13.4-7.4,29-2.8,42.9c4.7,12.1,16.5,20.5,29.2,22.1
			c14.2,2.3,28.9-1.3,41.5-7.8c4.9-3.3,4.6-9.7,5.9-14.8c0.9-4.6,1.9-9.2,2.8-13.8c-6.5-0.1-14.2-2.1-19.5,2.8
			c-7.8,6-18.7,9.7-28.2,5.8c-5.4-3.6-5.2-11-4.6-16.8c1-10.5,6.5-21.9,17.2-25.4c9.1-2.9,19.7,0.2,25.8,7.6c5.2,3,13.6,1.3,15-5.1
			c0.9-6.4,2.5-12.7,3.6-19.1C115.3,30.5,102,25.7,88.3,26.6z"/>
	</g>
</g>
</svg>
