<?xml version="1.0" encoding="utf-8"?>
<!-- Generator: Adobe Illustrator 26.0.0, SVG Export Plug-In . SVG Version: 6.00 Build 0)  -->
<svg version="1.1"
	 id="svg5" xmlns:inkscape="http://www.inkscape.org/namespaces/inkscape" xmlns:sodipodi="http://sodipodi.sourceforge.net/DTD/sodipodi-0.dtd" xmlns:svg="http://www.w3.org/2000/svg"
	 xmlns="http://www.w3.org/2000/svg" xmlns:xlink="http://www.w3.org/1999/xlink" x="0px" y="0px" viewBox="0 0 100 100"
	 style="enable-background:new 0 0 100 100;" xml:space="preserve">
<style type="text/css">
	.st0{fill:#CA83ED;stroke:#90B9FF;stroke-width:8;stroke-miterlimit:10;}
</style>
<sodipodi:namedview  bordercolor="#666666" borderopacity="1.0" id="namedview7" inkscape:current-layer="layer1" inkscape:cx="-1974.0863" inkscape:cy="384.31092" inkscape:document-units="px" inkscape:pagecheckerboard="0" inkscape:pageopacity="0.0" inkscape:pageshadow="2" inkscape:window-height="1001" inkscape:window-maximized="1" inkscape:window-width="1920" inkscape:window-x="-9" inkscape:window-y="-9" inkscape:zoom="0.18084316" pagecolor="#ffffff" showgrid="false" units="px" width="100px">
	</sodipodi:namedview>
<g id="layer1" inkscape:groupmode="layer" inkscape:label="閸ユ儳鐪1">
	<path id="rect1440" class="st0" d="M32.3,5.3h36.2c14.9,0,27,12.1,27,27v35.5c0,14.9-12.1,27-27,27H32.3c-14.9,0-27-12.1-27-27
		V32.3C5.3,17.4,17.4,5.3,32.3,5.3z"/>
	<path id="text8201" d="M50.4,24.3c-6.3,0.1-12.9,3.7-15,10.1c-2.1,5.8-0.2,13.1,5.2,16.4c4.5,2.9,9.9,4.3,14.2,7.4
		c2.2,2.2-0.4,5.6-3,5.8c-3.3,0.5-7.3,0.8-9.8-1.8c-1-1.9-0.8-4.2-1.1-6.3c-4,0.2-8,0.4-11.9,0.6c-0.4,5.8,1.2,12.5,6.5,15.6
		c6.2,3.8,14.2,4.1,21.1,2.2C63.8,72,69.2,64.5,68,56.9c-0.4-4.8-4.1-8.5-8.3-10.4c-4.1-2.4-8.9-3.5-12.5-6.6
		c-1.5-2,0.5-4.7,2.7-4.7c3.3-0.6,8-0.1,8.9,3.9c0.2,1.7,0.2,3.6,2.5,2.8c3.4-0.2,6.7-0.3,10.1-0.5c-0.1-5.4-2.3-10.9-6.8-13.9
		C60.5,24.6,55.3,24,50.4,24.3z"/>
</g>
</svg>
