<?xml version="1.0" encoding="utf-8"?>
<!-- Generator: Adobe Illustrator 26.0.0, SVG Export Plug-In . SVG Version: 6.00 Build 0)  -->
<svg version="1.1"
	 id="svg5" xmlns:inkscape="http://www.inkscape.org/namespaces/inkscape" xmlns:sodipodi="http://sodipodi.sourceforge.net/DTD/sodipodi-0.dtd" xmlns:svg="http://www.w3.org/2000/svg"
	 xmlns="http://www.w3.org/2000/svg" xmlns:xlink="http://www.w3.org/1999/xlink" x="0px" y="0px" viewBox="0 0 100 100"
	 style="enable-background:new 0 0 100 100;" xml:space="preserve">
<style type="text/css">
	.st0{fill:#EEFF78;stroke:#90B9FF;stroke-width:8;stroke-miterlimit:10;}
</style>
<sodipodi:namedview  bordercolor="#666666" borderopacity="1.0" id="namedview7" inkscape:current-layer="layer1" inkscape:cx="-1102.6357" inkscape:cy="494.62202" inkscape:document-units="px" inkscape:pagecheckerboard="0" inkscape:pageopacity="0.0" inkscape:pageshadow="2" inkscape:window-height="1001" inkscape:window-maximized="1" inkscape:window-width="1920" inkscape:window-x="-9" inkscape:window-y="-9" inkscape:zoom="0.25575084" pagecolor="#ffffff" showgrid="false" units="px" width="100px">
	</sodipodi:namedview>
<g id="layer1" inkscape:groupmode="layer" inkscape:label="閸ユ儳鐪1">
	<path id="rect1440" class="st0" d="M32.3,5.3h36.2c14.9,0,27,12.1,27,27v35.5c0,14.9-12.1,27-27,27H32.3c-14.9,0-27-12.1-27-27
		V32.3C5.3,17.4,17.4,5.3,32.3,5.3z"/>
	<path id="text3748" d="M53.5,20.5c-9.8,0.5-17.9,7.8-21.4,16.4c-2.5,6.2-3.6,13.3-1.3,19.7c1.9,5.3,7.7,8.4,13.3,8.2
		c4.3,0.1,8.5-1,12-3.3c-0.8,4.4-3.5,9-8.3,10.1c-5.8,1.5-11.8-0.2-17.2-2c-2.1-0.7-1.8,1.6-2.2,2.9c-0.5,2.1-1,4.2-1.5,6.4
		c8.3,2.4,17.7,3.4,25.9,0.2c7.5-2.9,11.7-10.4,13.5-17.6c3.2-13.2,6.3-26.5,9.4-39.7c-3.1,0-6.3,0-9.4,0c-0.3,2-1.8,0.5-3,0.2
		C60,20.7,56.7,20.3,53.5,20.5z M54.7,29.2c2.9,0,5.8,0.8,8.5,1.9C61.6,38,60,44.9,58.3,51.8c-4.5,2.7-10.1,5.3-15.4,3.2
		c-3.6-2-3.3-6.6-2.9-10.1c0.7-6.4,4.3-13.3,11.1-15.3C52.3,29.4,53.5,29.2,54.7,29.2z"/>
</g>
</svg>
