<?xml version="1.0" encoding="utf-8"?>
<!-- Generator: Adobe Illustrator 26.0.0, SVG Export Plug-In . SVG Version: 6.00 Build 0)  -->
<svg version="1.1"
	 id="svg5" xmlns:inkscape="http://www.inkscape.org/namespaces/inkscape" xmlns:sodipodi="http://sodipodi.sourceforge.net/DTD/sodipodi-0.dtd" xmlns:svg="http://www.w3.org/2000/svg"
	 xmlns="http://www.w3.org/2000/svg" xmlns:xlink="http://www.w3.org/1999/xlink" x="0px" y="0px" viewBox="0 0 100 100"
	 style="enable-background:new 0 0 100 100;" xml:space="preserve">
<style type="text/css">
	.st0{fill:#78EBFF;stroke:#90B9FF;stroke-width:8;stroke-miterlimit:10;}
</style>
<sodipodi:namedview  bordercolor="#666666" borderopacity="1.0" id="namedview7" inkscape:current-layer="layer1" inkscape:cx="-1257.9962" inkscape:cy="288.9244" inkscape:document-units="px" inkscape:pagecheckerboard="0" inkscape:pageopacity="0.0" inkscape:pageshadow="2" inkscape:window-height="1001" inkscape:window-maximized="1" inkscape:window-width="1920" inkscape:window-x="-9" inkscape:window-y="-9" inkscape:zoom="0.36168631" pagecolor="#ffffff" showgrid="false" units="px" width="100px">
	</sodipodi:namedview>
<g id="layer1" inkscape:groupmode="layer" inkscape:label="閸ユ儳鐪1">
	<path id="rect1440" class="st0" d="M32.3,5.3h36.2c14.9,0,27,12.1,27,27v35.5c0,14.9-12.1,27-27,27H32.3c-14.9,0-27-12.1-27-27
		V32.3C5.3,17.4,17.4,5.3,32.3,5.3z"/>
	<g id="text2513" transform="matrix(0.75219939,0,0,0.86434522,2.4003096,3.1871436)">
		<path id="path17727" d="M32.5,83.4c5.1,0,10.1,0,15.2,0c1.4-6.2,2.9-12.4,4.3-18.7c2.3-0.9,3.5-4.6,6.4-3.5
			c2.4,2.2,3.3,5.7,5.2,8.4c2.5,4.6,5.1,9.2,7.6,13.8c5.5,0,11.1,0,16.6,0C81.9,73,76,62.6,70.1,52.1C80,43,89.8,33.9,99.7,24.8
			c-6,0-12,0-17.9,0C73,33.4,64.2,42,55.4,50.6c2-8.6,4-17.2,5.9-25.8c-5.1,0-10.1,0-15.2,0C41.5,44.4,37,63.9,32.5,83.4z"/>
	</g>
</g>
</svg>
