<?xml version="1.0" encoding="utf-8"?>
<!-- Generator: Adobe Illustrator 26.0.0, SVG Export Plug-In . SVG Version: 6.00 Build 0)  -->
<svg version="1.1"
	 id="svg5" xmlns:inkscape="http://www.inkscape.org/namespaces/inkscape" xmlns:sodipodi="http://sodipodi.sourceforge.net/DTD/sodipodi-0.dtd" xmlns:svg="http://www.w3.org/2000/svg"
	 xmlns="http://www.w3.org/2000/svg" xmlns:xlink="http://www.w3.org/1999/xlink" x="0px" y="0px" viewBox="0 0 100 100"
	 style="enable-background:new 0 0 100 100;" xml:space="preserve">
<style type="text/css">
	.st0{fill:#FF7878;stroke:#90B9FF;stroke-width:8;stroke-miterlimit:10;}
	.st1{fill:#1F74FE;stroke:#FF0000;stroke-width:3;stroke-miterlimit:15.1181;}
	.st2{fill:none;stroke:#1F74FE;stroke-width:4.5363;stroke-miterlimit:15.1181;}
</style>
<sodipodi:namedview  bordercolor="#666666" borderopacity="1.0" id="namedview7" inkscape:current-layer="layer1" inkscape:cx="87.092043" inkscape:cy="52.099704" inkscape:document-units="px" inkscape:pagecheckerboard="0" inkscape:pageopacity="0.0" inkscape:pageshadow="2" inkscape:window-height="1001" inkscape:window-maximized="1" inkscape:window-width="1920" inkscape:window-x="-9" inkscape:window-y="-9" inkscape:zoom="5.786981" pagecolor="#ffffff" showgrid="false" units="px" width="100px">
	</sodipodi:namedview>
<g id="layer1" inkscape:groupmode="layer" inkscape:label="閸ユ儳鐪1">
	<path id="rect1440" class="st0" d="M32.3,5.3h36.2c14.9,0,27,12.1,27,27v35.5c0,14.9-12.1,27-27,27H32.3c-14.9,0-27-12.1-27-27
		V32.3C5.3,17.4,17.4,5.3,32.3,5.3z"/>
	<path id="rect943" class="st1" d="M66.4,68.8h29.1c1.6,0,3,1.3,3,3v23.1c0,1.6-1.3,3-3,3H66.4c-1.6,0-3-1.3-3-3V71.8
		C63.5,70.1,64.8,68.8,66.4,68.8z"/>
	<path id="path1124" sodipodi:nodetypes="cssaac" class="st2" d="M69.6,73.2c0,0-0.4-8.3,0.7-11.7c0.9-2.5,2.2-5.3,5-6.5
		c3.4-1.5,7.3-1.5,10.4,0c2.4,1.2,4.1,3.8,5.1,6.3c1.4,3.8,0.5,12.1,0.5,12.1"/>
	<g id="text2532" transform="matrix(1.1921924,0,0,1.1711689,-2.5083261,-1.9101967)">
		<path id="path12593" d="M23.4,24.1c5.4,14.3,10.8,28.7,16.3,43c3.6,0,7.3,0,10.9,0c5.9-15.2,11.7-30.5,17.6-45.7
			c-4.3,0-8.7,0-13,0c-3.3,8.7-6.6,17.3-10,26c-3.3-8.7-6.6-17.3-9.8-26c-4.3,0-8.7,0-13,0C22.8,22.3,23.1,23.2,23.4,24.1z"/>
	</g>
</g>
</svg>
