<?xml version="1.0" encoding="utf-8"?>
<!-- Generator: Adobe Illustrator 26.0.0, SVG Export Plug-In . SVG Version: 6.00 Build 0)  -->
<svg version="1.1"
	 id="svg5" xmlns:inkscape="http://www.inkscape.org/namespaces/inkscape" xmlns:sodipodi="http://sodipodi.sourceforge.net/DTD/sodipodi-0.dtd" xmlns:svg="http://www.w3.org/2000/svg"
	 xmlns="http://www.w3.org/2000/svg" xmlns:xlink="http://www.w3.org/1999/xlink" x="0px" y="0px" viewBox="0 0 100 100"
	 style="enable-background:new 0 0 100 100;" xml:space="preserve">
<style type="text/css">
	.st0{fill:none;stroke:#FFFFFF;stroke-width:8;stroke-miterlimit:10;}
	.st1{fill:#FFFFFF;}
</style>
<sodipodi:namedview  bordercolor="#666666" borderopacity="1.0" id="namedview7" inkscape:current-layer="layer1" inkscape:cx="6.9120668" inkscape:cy="208.05321" inkscape:document-units="px" inkscape:pagecheckerboard="0" inkscape:pageopacity="0.0" inkscape:pageshadow="2" inkscape:window-height="1001" inkscape:window-maximized="1" inkscape:window-width="1920" inkscape:window-x="-9" inkscape:window-y="-9" inkscape:zoom="0.72337264" pagecolor="#ffffff" showgrid="false" units="px" width="100px">
	</sodipodi:namedview>
<g id="layer1" inkscape:groupmode="layer" inkscape:label="闁搞儲鍎抽惇1">
	<path id="rect1440" class="st0" d="M32.3,5.3h36.2c14.9,0,27,12.1,27,27v35.5c0,14.9-12.1,27-27,27H32.3c-14.9,0-27-12.1-27-27
		V32.3C5.3,17.4,17.4,5.3,32.3,5.3z"/>
	<path id="text3171" class="st1" d="M41.8,25.5c-0.8,3.7-1.7,7.3-2.5,11c-2.7,0-5.4,0-8,0c-0.6,3.1-1.3,6.2-1.9,9.3
		c2.6,0,5.2,0,7.9,0c-0.8,1.6-0.2,4.7-1.9,5.3c-2.2,0-4.5,0-6.7,0c-0.7,3.1-1.4,6.2-2.1,9.3c2.4,0,4.9,0,7.3,0c-0.9,4-1.8,8-2.8,12
		c3.7,0,7.4,0,11,0c0.9-4,1.9-8,2.8-12c1.7,0.4,6-1.1,4.5,1.6c-0.8,3.5-1.6,7-2.4,10.4c3.7,0,7.4,0,11,0c1-4,2-8,3-12
		c2.6,0,5.2,0,7.8,0c0.8-3.1,1.7-6.2,2.5-9.3c-2.7,0-5.4,0-8.1,0c0.8-1.6,0.2-4.7,2-5.3c2.2,0,4.4,0,6.6,0c0.7-3.1,1.5-6.2,2.2-9.3
		c-2.4,0-4.9,0-7.3,0c0.9-4.1,1.9-8.2,2.8-12.3c-3.7,0-7.4,0-11.1,0c-1,4.1-1.9,8.2-2.9,12.3c-1.7-0.4-6,1.1-4.5-1.6
		c0.8-3.6,1.6-7.2,2.4-10.8c-3.7,0-7.5,0-11.2,0C42,24.6,41.9,25,41.8,25.5z M53.3,45.8c-0.8,1.6-0.3,4.7-2,5.3
		c-2.2,0-5.4,0.7-3.7-2.2c0-2.5,1.2-3.7,3.9-3C52.1,45.8,52.7,45.8,53.3,45.8z"/>
</g>
</svg>
