<?xml version="1.0" encoding="utf-8"?>
<!-- Generator: Adobe Illustrator 26.0.0, SVG Export Plug-In . SVG Version: 6.00 Build 0)  -->
<svg version="1.1"
	 id="svg5" xmlns:inkscape="http://www.inkscape.org/namespaces/inkscape" xmlns:sodipodi="http://sodipodi.sourceforge.net/DTD/sodipodi-0.dtd" xmlns:svg="http://www.w3.org/2000/svg"
	 xmlns="http://www.w3.org/2000/svg" xmlns:xlink="http://www.w3.org/1999/xlink" x="0px" y="0px" viewBox="0 0 100 100"
	 style="enable-background:new 0 0 100 100;" xml:space="preserve">
<style type="text/css">
	.st0{fill:none;stroke:#FFFFFF;stroke-width:8;stroke-miterlimit:10;}
	.st1{fill:#FFFFFF;}
</style>
<sodipodi:namedview  bordercolor="#666666" borderopacity="1.0" id="namedview7" inkscape:current-layer="layer1" inkscape:cx="-89.931277" inkscape:cy="479.95932" inkscape:document-units="px" inkscape:pagecheckerboard="0" inkscape:pageopacity="0.0" inkscape:pageshadow="2" inkscape:window-height="1001" inkscape:window-maximized="1" inkscape:window-width="1920" inkscape:window-x="-9" inkscape:window-y="-9" inkscape:zoom="0.51150169" pagecolor="#ffffff" showgrid="false" units="px" width="100px">
	</sodipodi:namedview>
<g id="layer1" inkscape:groupmode="layer" inkscape:label="闁搞儲鍎抽惇1">
	<path id="rect1440" class="st0" d="M32.3,5.3h36.2c14.9,0,27,12.1,27,27v35.5c0,14.9-12.1,27-27,27H32.3c-14.9,0-27-12.1-27-27
		V32.3C5.3,17.4,17.4,5.3,32.3,5.3z"/>
	<path id="text3748" class="st1" d="M57.3,22c-6.9,0.3-12.3,6.1-13.9,12.6c0,1.9-1.1,2.3-2.8,2c-2.1-0.6-1.4,2.3-2,3.5
		c-0.5,2.3-1,4.5-1.4,6.8c1.1,0.3,3.1-0.1,3.6,0.4c-2.1,10.4-4.1,20.7-6.2,31.1c3.6,0,7.2,0,10.9,0c2.1-10.5,4.2-20.9,6.2-31.4
		c3.2,0,6.3,0,9.5,0c0.7-3.5,1.5-7,2.2-10.5c-3.2,0-6.4,0-9.6,0c0.5-2.2,2.3-4.2,4.8-3.9c2.3-0.1,4.9,1.9,6.9,0.2
		c1.2-1.8,0.9-4.1,1.6-6.1c0-1.4,1.8-4.1-0.7-3.9C63.4,22.2,60.4,21.7,57.3,22z"/>
</g>
</svg>
