<?xml version="1.0" encoding="utf-8"?>
<!-- Generator: Adobe Illustrator 26.0.0, SVG Export Plug-In . SVG Version: 6.00 Build 0)  -->
<svg version="1.1"
	 id="svg5" xmlns:inkscape="http://www.inkscape.org/namespaces/inkscape" xmlns:sodipodi="http://sodipodi.sourceforge.net/DTD/sodipodi-0.dtd" xmlns:svg="http://www.w3.org/2000/svg"
	 xmlns="http://www.w3.org/2000/svg" xmlns:xlink="http://www.w3.org/1999/xlink" x="0px" y="0px" viewBox="0 0 100 100"
	 style="enable-background:new 0 0 100 100;" xml:space="preserve">
<style type="text/css">
	.st0{fill:none;stroke:#FFFFFF;stroke-width:8;stroke-miterlimit:10;}
	.st1{fill:#00FFFF;}
	.st2{fill:none;stroke:#00FFFF;stroke-width:4.5363;stroke-miterlimit:15.1181;}
	.st3{fill:#FFFFFF;}
</style>
<sodipodi:namedview  bordercolor="#666666" borderopacity="1.0" id="namedview7" inkscape:current-layer="layer1" inkscape:cx="-1797.1374" inkscape:cy="141.00617" inkscape:document-units="px" inkscape:pagecheckerboard="0" inkscape:pageopacity="0.0" inkscape:pageshadow="2" inkscape:window-height="1001" inkscape:window-maximized="1" inkscape:window-width="1920" inkscape:window-x="-9" inkscape:window-y="-9" inkscape:zoom="0.18084316" pagecolor="#ffffff" showgrid="false" units="px" width="100px">
	</sodipodi:namedview>
<g id="layer1" inkscape:groupmode="layer" inkscape:label="闁搞儲鍎抽惇1">
	<path id="rect1440" class="st0" d="M32.3,5.3h36.2c14.9,0,27,12.1,27,27v35.5c0,14.9-12.1,27-27,27H32.3c-14.9,0-27-12.1-27-27
		V32.3C5.3,17.4,17.4,5.3,32.3,5.3z"/>
	<path id="rect943" class="st1" d="M66.4,68.8h29.1c1.6,0,3,1.3,3,3v23.1c0,1.6-1.3,3-3,3H66.4c-1.6,0-3-1.3-3-3V71.8
		C63.5,70.1,64.8,68.8,66.4,68.8z"/>
	<path id="path1124" sodipodi:nodetypes="csssc" class="st2" d="M69.6,71.1c0,0-0.4-8.3,0.7-11.7c0.9-2.5,2.2-5.3,5-6.5
		c3.4-1.5,8.3-1.6,11.7,0c2.7,1.2,4.7,6.5,4.7,6.5"/>
	<path id="text3748" class="st3" d="M58.7,18.3c-7.6,0.3-13.6,6.8-15.4,14c0,2.2-1.3,2.5-3.2,2.2c-2.3-0.7-1.6,2.6-2.2,3.9
		c-0.5,2.5-1.1,5-1.6,7.5c1.2,0.4,3.4-0.1,4,0.5c-2.3,11.5-4.6,23-6.9,34.6c4,0,8,0,12.1,0c2.3-11.6,4.6-23.2,6.9-34.9
		c3.5,0,7.1,0,10.6,0c0.8-3.9,1.6-7.8,2.5-11.6c-3.6,0-7.1,0-10.7,0c0.6-2.5,2.6-4.7,5.3-4.3c2.5-0.1,5.4,2.1,7.7,0.3
		c1.3-2,1-4.6,1.8-6.8c0-1.6,2.1-4.6-0.8-4.3C65.5,18.6,62.1,18.1,58.7,18.3L58.7,18.3z"/>
</g>
</svg>
