<?xml version="1.0" encoding="utf-8"?>
<!-- Generator: Adobe Illustrator 26.0.0, SVG Export Plug-In . SVG Version: 6.00 Build 0)  -->
<svg version="1.1"
	 id="svg5" xmlns:inkscape="http://www.inkscape.org/namespaces/inkscape" xmlns:sodipodi="http://sodipodi.sourceforge.net/DTD/sodipodi-0.dtd" xmlns:svg="http://www.w3.org/2000/svg"
	 xmlns="http://www.w3.org/2000/svg" xmlns:xlink="http://www.w3.org/1999/xlink" x="0px" y="0px" viewBox="0 0 100 100"
	 style="enable-background:new 0 0 100 100;" xml:space="preserve">
<style type="text/css">
	.st0{fill:none;stroke:#FFFFFF;stroke-width:8;stroke-miterlimit:10;}
	.st1{fill:#FFFFFF;}
</style>
<sodipodi:namedview  bordercolor="#666666" borderopacity="1.0" id="namedview7" inkscape:current-layer="layer1" inkscape:cx="-1337.239" inkscape:cy="306.93935" inkscape:document-units="px" inkscape:pagecheckerboard="0" inkscape:pageopacity="0.0" inkscape:pageshadow="2" inkscape:window-height="1001" inkscape:window-maximized="1" inkscape:window-width="1920" inkscape:window-x="-9" inkscape:window-y="-9" inkscape:zoom="0.25575085" pagecolor="#ffffff" showgrid="false" units="px" width="100px">
	</sodipodi:namedview>
<g id="layer1" inkscape:groupmode="layer" inkscape:label="闁搞儲鍎抽惇1">
	<path id="rect1440" class="st0" d="M32.3,5.3h36.2c14.9,0,27,12.1,27,27v35.5c0,14.9-12.1,27-27,27H32.3c-14.9,0-27-12.1-27-27
		V32.3C5.3,17.4,17.4,5.3,32.3,5.3z"/>
	<path id="text3748" class="st1" d="M32.4,24.7c-0.9,4-1.8,8-2.6,12.1c5.2,0,10.5,0,15.7,0c-3,13.4-6,26.7-9.1,40.1
		c4.8,0,9.7,0,14.5,0c3-13.4,6-26.7,9.1-40.1c5.3,0,10.5,0,15.8,0c1-4.5,2-9,3-13.5c-15.3,0-30.6,0-46,0
		C32.7,23.7,32.5,24.2,32.4,24.7z"/>
</g>
</svg>
