<?xml version="1.0" encoding="UTF-8" standalone="no"?>
<!-- Created with Inkscape (http://www.inkscape.org/) -->

<svg
   width="100"
   height="100"
   viewBox="0 0 26.458333 26.458333"
   version="1.1"
   id="svg5"
   inkscape:version="1.1.1 (3bf5ae0d25, 2021-09-20)"
   sodipodi:docname="folder-git-changed.svg"
   xmlns:inkscape="http://www.inkscape.org/namespaces/inkscape"
   xmlns:sodipodi="http://sodipodi.sourceforge.net/DTD/sodipodi-0.dtd"
   xmlns="http://www.w3.org/2000/svg"
   xmlns:svg="http://www.w3.org/2000/svg">
  <sodipodi:namedview
     id="namedview7"
     pagecolor="#ffffff"
     bordercolor="#666666"
     borderopacity="1.0"
     inkscape:pageshadow="2"
     inkscape:pageopacity="0.0"
     inkscape:pagecheckerboard="0"
     inkscape:document-units="px"
     showgrid="false"
     inkscape:zoom="4.0920136"
     inkscape:cx="-11.485788"
     inkscape:cy="80.278326"
     inkscape:window-width="1920"
     inkscape:window-height="1001"
     inkscape:window-x="-9"
     inkscape:window-y="-9"
     inkscape:window-maximized="1"
     inkscape:current-layer="layer1"
     units="px"
     width="100px" />
  <defs
     id="defs2">
    <linearGradient
       id="linearGradient3056"
       inkscape:swatch="gradient">
      <stop
         style="stop-color:#45c200;stop-opacity:1"
         offset="0"
         id="stop826" />
      <stop
         style="stop-color:#53e900;stop-opacity:1"
         offset="1"
         id="stop828" />
    </linearGradient>
    <linearGradient
       id="linearGradient3056-2">
      <stop
         style="stop-color:#45c200;stop-opacity:1"
         offset="0"
         id="stop3052" />
      <stop
         style="stop-color:#5fff07;stop-opacity:1"
         offset="1"
         id="stop3054" />
    </linearGradient>
  </defs>
  <g
     inkscape:label="图层 1"
     inkscape:groupmode="layer"
     id="layer1">
    <g
       id="g929">
      <path
         id="rect934"
         style="fill:#fcbc4c;fill-opacity:1;stroke:#000000;stroke-width:0.264583;stroke-miterlimit:4;stroke-dasharray:none"
         d="m 23.25086,19.940626 0.02129,-5.348279 c -0.02157,-1.176532 -1.20298,-1.844222 -2.462226,-1.92922 l -0.0078,-10.8812511 c 0.06287,-0.93528196 0.02037,-0.88955496 -0.860969,-0.88955496 H 6.4328923 V 21.6662 L 20.623933,21.62608 c 1.6677,-0.09916 2.57977,-0.603319 2.626927,-1.685458 z"
         sodipodi:nodetypes="ccccccccc" />
      <path
         style="fill:#fdd99b;fill-opacity:1;stroke:#000000;stroke-width:0.200279;stroke-linecap:butt;stroke-linejoin:miter;stroke-miterlimit:4;stroke-dasharray:none;stroke-opacity:1"
         d="M 6.4243333,0.89348134 V 21.667422 l 6.1295627,3.630798 c 0.501856,0.355154 0.457316,0.283463 0.458431,-0.602532 l 0.02342,-18.6159783 c 0.04803,-0.8264309 -0.02852,-0.8256775 -0.44161,-1.0993086 z"
         id="path6014"
         sodipodi:nodetypes="ccccccc" />
    </g>
    <ellipse
       style="fill:#ff0000;fill-opacity:0.725296;stroke-width:0.291041;stroke-linecap:round"
       id="path857"
       cx="6.67978"
       cy="19.33"
       rx="6.638608"
       ry="7.0409479" />
    <path
       id="text4491"
       style="font-size:11.2889px;line-height:1.25;font-family:sans-serif;fill:#ffffff;fill-opacity:1;stroke-width:0.291041"
       d="m 5.2598802,14.801667 c 0.048462,2.429887 0.098911,4.859737 0.1460937,7.289649 0.7032553,0 1.4065105,0 2.1097656,0 0.057373,-2.627491 0.1089462,-5.255107 0.1654297,-7.882618 -0.810677,0 -1.6213541,0 -2.4320312,0 0.00359,0.197657 0.00716,0.395313 0.010747,0.592969 z m 1.1644531,7.394922 C 5.2150667,22.170266 4.6297099,23.91092 5.6370676,24.599614 6.5462447,25.393175 8.1067095,24.462116 7.8143724,23.28155 7.6820907,22.651209 7.0745002,22.156398 6.4243333,22.196589 Z" />
  </g>
</svg>
