<?xml version="1.0" encoding="UTF-8" standalone="no"?>
<!-- Created with Inkscape (http://www.inkscape.org/) -->

<svg
   width="100"
   height="100"
   viewBox="0 0 26.458333 26.458333"
   version="1.1"
   id="svg5"
   inkscape:version="1.1.1 (3bf5ae0d25, 2021-09-20)"
   sodipodi:docname="dark-close.svg"
   xmlns:inkscape="http://www.inkscape.org/namespaces/inkscape"
   xmlns:sodipodi="http://sodipodi.sourceforge.net/DTD/sodipodi-0.dtd"
   xmlns="http://www.w3.org/2000/svg"
   xmlns:svg="http://www.w3.org/2000/svg">
  <sodipodi:namedview
     id="namedview7"
     pagecolor="#ffffff"
     bordercolor="#666666"
     borderopacity="1.0"
     inkscape:pageshadow="2"
     inkscape:pageopacity="0.0"
     inkscape:pagecheckerboard="0"
     inkscape:document-units="px"
     showgrid="false"
     inkscape:zoom="5.786981"
     inkscape:cx="20.909002"
     inkscape:cy="54.864531"
     inkscape:window-width="1920"
     inkscape:window-height="1001"
     inkscape:window-x="-9"
     inkscape:window-y="-9"
     inkscape:window-maximized="1"
     inkscape:current-layer="layer1"
     units="px"
     width="100px" />
  <defs
     id="defs2">
    <linearGradient
       id="linearGradient3056"
       inkscape:swatch="gradient">
      <stop
         style="stop-color:#45c200;stop-opacity:1"
         offset="0"
         id="stop826" />
      <stop
         style="stop-color:#53e900;stop-opacity:1"
         offset="1"
         id="stop828" />
    </linearGradient>
    <linearGradient
       id="linearGradient3056-2">
      <stop
         style="stop-color:#45c200;stop-opacity:1"
         offset="0"
         id="stop3052" />
      <stop
         style="stop-color:#5fff07;stop-opacity:1"
         offset="1"
         id="stop3054" />
    </linearGradient>
  </defs>
  <g
     inkscape:label="图层 1"
     inkscape:groupmode="layer"
     id="layer1">
    <path
       id="path1359"
       style="fill:#e6e6e6;fill-opacity:1;stroke:none;stroke-width:0.704429;stroke-linecap:butt;stroke-linejoin:miter;stroke-miterlimit:4;stroke-dasharray:none;stroke-opacity:1"
       d="m 4.899355,7.0474447 c 2.0069681,1.9767446 4.015841,3.9516203 6.021596,5.9295553 -2.0058262,1.978371 -4.0146203,3.953829 -6.021596,5.931071 0.8065737,0.79384 1.6131472,1.587679 2.419721,2.381518 2.0079538,-1.975268 4.013905,-3.952515 6.023135,-5.926526 2.010107,1.974158 4.017253,3.951237 6.026213,5.926526 0.806573,-0.793839 1.613147,-1.587678 2.419721,-2.381518 C 19.781164,16.930834 17.772382,14.955364 15.766549,12.977 17.772297,10.999058 19.781182,9.0241947 21.788145,7.0474447 20.981571,6.2541102 20.174997,5.4607758 19.368424,4.6674415 17.359482,6.6422431 15.352232,8.6187161 13.342211,10.592453 11.333051,8.6188773 9.3270225,6.6422133 7.319076,4.6674415 6.5125022,5.4607758 5.7059287,6.2541102 4.899355,7.0474447 Z" />
  </g>
</svg>
