<?xml version="1.0" encoding="UTF-8" standalone="no"?>
<!-- Created with Inkscape (http://www.inkscape.org/) -->

<svg
   width="100"
   height="100"
   viewBox="0 0 26.458333 26.458333"
   version="1.1"
   id="svg5"
   inkscape:version="1.1.1 (3bf5ae0d25, 2021-09-20)"
   sodipodi:docname="class.svg"
   xmlns:inkscape="http://www.inkscape.org/namespaces/inkscape"
   xmlns:sodipodi="http://sodipodi.sourceforge.net/DTD/sodipodi-0.dtd"
   xmlns="http://www.w3.org/2000/svg"
   xmlns:svg="http://www.w3.org/2000/svg">
  <sodipodi:namedview
     id="namedview7"
     pagecolor="#ffffff"
     bordercolor="#666666"
     borderopacity="1.0"
     inkscape:pageshadow="2"
     inkscape:pageopacity="0.0"
     inkscape:pagecheckerboard="0"
     inkscape:document-units="px"
     showgrid="false"
     inkscape:zoom="4.0920135"
     inkscape:cx="71.358513"
     inkscape:cy="54.129831"
     inkscape:window-width="1920"
     inkscape:window-height="1001"
     inkscape:window-x="-9"
     inkscape:window-y="-9"
     inkscape:window-maximized="1"
     inkscape:current-layer="layer1"
     units="px"
     width="100px" />
  <defs
     id="defs2" />
  <g
     inkscape:label="图层 1"
     inkscape:groupmode="layer"
     id="layer1">
    <rect
       style="fill:#0092e9;fill-opacity:1;stroke:none;stroke-width:0.864658;stroke-miterlimit:4;stroke-dasharray:none"
       id="rect1440"
       width="26.508671"
       height="26.308193"
       x="0.084942333"
       y="0.091440894"
       rx="7.9375"
       ry="7.9375" />
    <g
       aria-label="C"
       id="text3748"
       style="font-size:28.2222px;line-height:1.25;stroke-width:0.264583">
      <path
         id="path843"
         style="font-style:italic;-inkscape-font-specification:'sans-serif Italic'"
         d="M 15.496094,1.8085938 C 11.370996,1.9327556 7.3577132,4.2467687 5.3392436,7.873358 c -1.6993874,2.966607 -2.3618088,6.532679 -1.8632397,9.912326 0.3887975,2.663505 2.3830253,4.960476 4.9471105,5.760622 3.3771256,1.097213 7.0984606,0.529193 10.2839106,-0.912552 0.422546,-0.256803 1.123247,-0.322262 1.303468,-0.780928 0.263522,-1.289464 0.524521,-2.579447 0.790288,-3.868451 -0.610727,-0.04477 -1.206043,-0.04115 -1.636155,0.461024 -2.534818,1.877969 -5.952437,2.995811 -9.044838,1.949746 C 8.1413438,19.686936 7.254914,17.465259 7.2927011,15.498365 7.2331434,11.990361 8.53091,8.1330692 11.638395,6.2081688 14.77041,4.2466644 19.232527,4.9514065 21.707288,7.6645539 22.111629,7.8196586 22.860609,7.8889181 22.746234,7.2183601 22.971102,6.0934213 23.199239,4.9691325 23.421875,3.84375 21.031066,2.432932 18.284264,1.6393827 15.496094,1.8085938 Z" />
    </g>
  </g>
</svg>
