<?xml version="1.0" encoding="UTF-8" standalone="no"?>
<!-- Created with Inkscape (http://www.inkscape.org/) -->

<svg
   width="100"
   height="100"
   viewBox="0 0 26.458333 26.458333"
   version="1.1"
   id="svg5"
   inkscape:version="1.1.1 (3bf5ae0d25, 2021-09-20)"
   sodipodi:docname="code_snippet.svg"
   xmlns:inkscape="http://www.inkscape.org/namespaces/inkscape"
   xmlns:sodipodi="http://sodipodi.sourceforge.net/DTD/sodipodi-0.dtd"
   xmlns="http://www.w3.org/2000/svg"
   xmlns:svg="http://www.w3.org/2000/svg">
  <sodipodi:namedview
     id="namedview7"
     pagecolor="#ffffff"
     bordercolor="#666666"
     borderopacity="1.0"
     inkscape:pageshadow="2"
     inkscape:pageopacity="0.0"
     inkscape:pagecheckerboard="0"
     inkscape:document-units="px"
     showgrid="false"
     inkscape:zoom="0.18084316"
     inkscape:cx="-1974.0863"
     inkscape:cy="384.31092"
     inkscape:window-width="1920"
     inkscape:window-height="1001"
     inkscape:window-x="-9"
     inkscape:window-y="-9"
     inkscape:window-maximized="1"
     inkscape:current-layer="layer1"
     units="px"
     width="100px" />
  <defs
     id="defs2" />
  <g
     inkscape:label="图层 1"
     inkscape:groupmode="layer"
     id="layer1">
    <rect
       style="fill:#ca83ed;fill-opacity:1;stroke:none;stroke-width:0.864658;stroke-miterlimit:4;stroke-dasharray:none"
       id="rect1440"
       width="26.508604"
       height="26.308193"
       x="0.084942333"
       y="0.091440894"
       rx="7.9375"
       ry="7.9375" />
    <path
       id="text8201"
       style="font-style:normal;font-weight:normal;font-size:21.1667px;line-height:1.25;font-family:sans-serif;fill:#000000;fill-opacity:1;stroke:none;stroke-width:0.235491"
       d="M 13.344422,5.6594364 C 11.492864,5.7013954 9.5491787,6.7439855 8.9392451,8.6152328 8.3183947,10.329331 8.8687491,12.475596 10.460927,13.43064 c 1.325481,0.860295 2.89789,1.255164 4.186664,2.166178 0.64448,0.65278 -0.106092,1.65226 -0.871255,1.693145 -0.955355,0.136916 -2.159629,0.246647 -2.879872,-0.529307 -0.294432,-0.565019 -0.236626,-1.227014 -0.313312,-1.843182 -1.1684086,0.06019 -2.3367367,0.122132 -3.5049536,0.186074 -0.1273411,1.71168 0.3649116,3.66334 1.9022464,4.592154 1.8354642,1.12791 4.1661712,1.213354 6.1921992,0.631949 2.087912,-0.631012 3.690662,-2.829705 3.335093,-5.082763 -0.129549,-1.417338 -1.202247,-2.511323 -2.429457,-3.06329 -1.196895,-0.693881 -2.601716,-1.033583 -3.67207,-1.935272 -0.446796,-0.5897592 0.134618,-1.3838643 0.798771,-1.3797538 0.967421,-0.1713387 2.353709,-0.043167 2.602893,1.1445288 0.07191,0.511711 0.06447,1.053776 0.730422,0.809923 0.985097,-0.04527 1.970189,-0.09066 2.955289,-0.135846 C 19.456575,9.1102778 18.828304,7.4916548 17.500099,6.6003367 16.289816,5.7625552 14.772899,5.5840322 13.344422,5.6594364 Z" />
  </g>
</svg>
