<?xml version="1.0" encoding="UTF-8" standalone="no"?>
<!-- Created with Inkscape (http://www.inkscape.org/) -->

<svg
   width="100"
   height="100"
   viewBox="0 0 26.458333 26.458333"
   version="1.1"
   id="svg5"
   inkscape:version="1.1.1 (3bf5ae0d25, 2021-09-20)"
   sodipodi:docname="define.svg"
   xmlns:inkscape="http://www.inkscape.org/namespaces/inkscape"
   xmlns:sodipodi="http://sodipodi.sourceforge.net/DTD/sodipodi-0.dtd"
   xmlns="http://www.w3.org/2000/svg"
   xmlns:svg="http://www.w3.org/2000/svg">
  <sodipodi:namedview
     id="namedview7"
     pagecolor="#ffffff"
     bordercolor="#666666"
     borderopacity="1.0"
     inkscape:pageshadow="2"
     inkscape:pageopacity="0.0"
     inkscape:pagecheckerboard="0"
     inkscape:document-units="px"
     showgrid="false"
     inkscape:zoom="0.72337264"
     inkscape:cx="6.9120668"
     inkscape:cy="208.05321"
     inkscape:window-width="1920"
     inkscape:window-height="1001"
     inkscape:window-x="-9"
     inkscape:window-y="-9"
     inkscape:window-maximized="1"
     inkscape:current-layer="layer1"
     units="px"
     width="100px" />
  <defs
     id="defs2" />
  <g
     inkscape:label="图层 1"
     inkscape:groupmode="layer"
     id="layer1">
    <rect
       style="fill:#a0a0a0;fill-opacity:0.501961;stroke:none;stroke-width:0.864658;stroke-miterlimit:4;stroke-dasharray:none"
       id="rect1440"
       width="26.508671"
       height="26.308193"
       x="0.084942333"
       y="0.091440894"
       rx="7.9375"
       ry="7.9375" />
    <path
       id="text3171"
       style="font-style:normal;font-weight:normal;font-size:19.9728px;line-height:1.25;font-family:sans-serif;fill:#000000;fill-opacity:1;stroke:none;stroke-width:0.499321"
       d="m 10.805974,6.0219465 c -0.245001,1.0750814 -0.490002,2.1501629 -0.735003,3.2252442 -0.786869,0 -1.5737382,0 -2.3606075,0 C 7.5201237,10.157598 7.3315992,11.068301 7.141197,11.97868 c 0.7691255,0 1.5382509,0 2.3073765,0 -0.2368628,0.463482 -0.058744,1.392985 -0.5699855,1.548341 -0.6562476,0 -1.3124953,0 -1.9687428,0 -0.2039413,0.910771 -0.4110943,1.820944 -0.6162559,2.731489 0.7186239,0 1.4372478,0 2.1558717,0 -0.2696081,1.178173 -0.5386514,2.356453 -0.8087078,3.53454 1.0823718,0 2.1647436,0 3.2471158,0 0.2766,-1.178007 0.5513,-2.356384 0.827133,-3.53454 0.49525,0.113579 1.748911,-0.333049 1.315106,0.466786 -0.236403,1.022577 -0.471865,2.045334 -0.709087,3.067754 1.08169,0 2.163379,0 3.245068,0 0.287751,-1.178506 0.578945,-2.356315 0.868082,-3.53454 0.763666,0 1.527332,0 2.290997,0 0.242184,-0.910816 0.486193,-1.821233 0.730909,-2.731489 -0.795742,0 -1.591482,-10e-7 -2.387224,0 0.239671,-0.463855 0.06825,-1.39209 0.580223,-1.548341 0.64601,0 1.292021,0 1.938032,0 0.2152,-0.91072 0.432782,-1.820972 0.649014,-2.7314893 -0.717942,0 -1.435883,0 -2.153825,0 0.276459,-1.2092213 0.552016,-2.4186134 0.829182,-3.627701 -1.089197,0 -2.178393,0 -3.26759,0 -0.283726,1.2090027 -0.564906,2.4184993 -0.847608,3.627701 -0.497501,-0.1139585 -1.751604,0.3335673 -1.32359,-0.467229 0.237832,-1.0534896 0.475553,-2.1069998 0.713477,-3.160472 -1.096021,0 -2.192042,0 -3.288063,0 -0.03071,0.1341522 -0.06142,0.2683045 -0.09213,0.4024568 z m 3.369958,5.9567335 c -0.241916,0.464158 -0.07584,1.391358 -0.588413,1.548341 -0.649701,-0.0065 -1.591859,0.201422 -1.085767,-0.652482 0.0079,-0.725719 0.342187,-1.08264 1.157834,-0.895859 0.172115,0 0.344231,0 0.516346,0 z" />
  </g>
</svg>
