<?xml version="1.0" encoding="UTF-8" standalone="no"?>
<!-- Created with Inkscape (http://www.inkscape.org/) -->

<svg
   width="100"
   height="100"
   viewBox="0 0 26.458333 26.458333"
   version="1.1"
   id="svg5"
   inkscape:version="1.1.1 (3bf5ae0d25, 2021-09-20)"
   sodipodi:docname="define.svg"
   xmlns:inkscape="http://www.inkscape.org/namespaces/inkscape"
   xmlns:sodipodi="http://sodipodi.sourceforge.net/DTD/sodipodi-0.dtd"
   xmlns="http://www.w3.org/2000/svg"
   xmlns:svg="http://www.w3.org/2000/svg">
  <sodipodi:namedview
     id="namedview7"
     pagecolor="#ffffff"
     bordercolor="#666666"
     borderopacity="1.0"
     inkscape:pageshadow="2"
     inkscape:pageopacity="0.0"
     inkscape:pagecheckerboard="0"
     inkscape:document-units="px"
     showgrid="false"
     inkscape:zoom="4.0920135"
     inkscape:cx="71.358513"
     inkscape:cy="54.129831"
     inkscape:window-width="1920"
     inkscape:window-height="1001"
     inkscape:window-x="-9"
     inkscape:window-y="-9"
     inkscape:window-maximized="1"
     inkscape:current-layer="layer1"
     units="px"
     width="100px" />
  <defs
     id="defs2" />
  <g
     inkscape:label="图层 1"
     inkscape:groupmode="layer"
     id="layer1">
    <rect
       style="fill:#a0a0a0;fill-opacity:0.501961;stroke:none;stroke-width:0.864658;stroke-miterlimit:4;stroke-dasharray:none"
       id="rect1440"
       width="26.508671"
       height="26.308193"
       x="0.084942333"
       y="0.091440894"
       rx="7.9375"
       ry="7.9375" />
    <path
       id="text3748"
       style="font-style:normal;font-weight:normal;font-size:28.2222px;line-height:1.25;font-family:sans-serif;fill:#000000;fill-opacity:1;stroke:none;stroke-width:0.264583"
       d="M 12.960938,2.6503906 C 12.202474,4.5065104 11.44401,6.3626302 10.685547,8.21875 c -1.3385418,0 -2.6770835,0 -4.0156251,0 C 6.3008921,9.1461369 5.9300936,10.072819 5.5605469,11 c 1.3359375,0 2.671875,0 4.0078125,0 -0.4453125,1.103516 -0.890625,2.207031 -1.3359375,3.310547 -1.2682292,0 -2.5364584,0 -3.8046875,0 -0.3736649,0.916801 -0.7456678,1.83428 -1.1171875,2.751953 1.2565104,0 2.5130208,0 3.7695312,0 -0.8039706,1.943387 -1.6086067,3.886498 -2.4121093,5.830078 1.047526,0 2.095052,0 3.1425781,0 0.8037085,-1.943495 1.6081255,-3.886697 2.4121091,-5.830078 0.840495,0 1.68099,0 2.521485,0 -0.803971,1.943387 -1.608607,3.886498 -2.41211,5.830078 1.047526,0 2.095052,0 3.142578,0 0.803709,-1.943495 1.608126,-3.886697 2.41211,-5.830078 1.337239,0 2.674479,0 4.011719,0 0.374278,-0.917081 0.747013,-1.834791 1.121093,-2.751953 -1.328776,0 -2.657552,0 -3.986328,0 0.445313,-1.103516 0.890625,-2.207031 1.335938,-3.310547 1.259114,0 2.518229,0 3.777343,0 0.374233,-0.925819 0.743897,-1.8534861 1.113282,-2.78125 -1.256511,0 -2.513021,0 -3.769532,0 0.80406,-1.9661364 1.607876,-3.9323724 2.41211,-5.8984375 -1.047526,0 -2.095052,0 -3.142578,0 -0.805081,1.9657179 -1.607906,3.9323603 -2.41211,5.8984375 -0.840495,0 -1.680989,0 -2.521484,0 0.803216,-1.9662148 1.608213,-3.9317031 2.410156,-5.8984375 -1.046875,0 -2.09375,0 -3.140625,0 -0.04492,0.110026 -0.08984,0.2200521 -0.134765,0.3300781 z M 15.230469,11 c -0.445964,1.103516 -0.891927,2.207031 -1.337891,3.310547 -0.841146,0 -1.682292,0 -2.523437,0 0.445312,-1.103516 0.890625,-2.207031 1.335937,-3.310547 0.841797,0 1.683594,0 2.525391,0 z" />
  </g>
</svg>
