<?xml version="1.0" encoding="UTF-8" standalone="no"?>
<!-- Created with Inkscape (http://www.inkscape.org/) -->

<svg
   width="100"
   height="100"
   viewBox="0 0 26.458333 26.458333"
   version="1.1"
   id="svg5"
   inkscape:version="1.1.1 (3bf5ae0d25, 2021-09-20)"
   sodipodi:docname="define.svg"
   xmlns:inkscape="http://www.inkscape.org/namespaces/inkscape"
   xmlns:sodipodi="http://sodipodi.sourceforge.net/DTD/sodipodi-0.dtd"
   xmlns="http://www.w3.org/2000/svg"
   xmlns:svg="http://www.w3.org/2000/svg">
  <sodipodi:namedview
     id="namedview7"
     pagecolor="#ffffff"
     bordercolor="#666666"
     borderopacity="1.0"
     inkscape:pageshadow="2"
     inkscape:pageopacity="0.0"
     inkscape:pagecheckerboard="0"
     inkscape:document-units="px"
     showgrid="false"
     inkscape:zoom="0.5115017"
     inkscape:cx="-260.01869"
     inkscape:cy="28.347902"
     inkscape:window-width="1920"
     inkscape:window-height="1001"
     inkscape:window-x="-9"
     inkscape:window-y="-9"
     inkscape:window-maximized="1"
     inkscape:current-layer="layer1"
     units="px"
     width="100px" />
  <defs
     id="defs2" />
  <g
     inkscape:label="图层 1"
     inkscape:groupmode="layer"
     id="layer1">
    <rect
       style="fill:#a0a0a0;fill-opacity:0.501961;stroke:none;stroke-width:0.864658;stroke-miterlimit:4;stroke-dasharray:none"
       id="rect1440"
       width="26.508671"
       height="26.308193"
       x="0.084942333"
       y="0.091440894"
       rx="7.9375"
       ry="7.9375" />
    <path
       id="text3748"
       style="font-style:normal;font-weight:normal;font-size:28.2222px;line-height:1.25;font-family:sans-serif;fill:#232323;fill-opacity:1;stroke:none;stroke-width:0.210965"
       d="m 12.11901,5.7726187 c -0.68762,1.3013513 -1.375639,2.6025757 -2.063413,3.9038777 -1.2150233,0 -2.4300464,0 -3.6450689,0 -0.4622532,0.8975376 -0.9257799,1.7946836 -1.3885977,2.6920466 1.2108902,0 2.4217804,0 3.6326699,0 -0.274531,0.526269 -0.5490621,1.052537 -0.8235931,1.578805 -1.1500804,0 -2.3001604,0 -3.4502403,0 -0.4686915,0.890154 -0.9360689,1.780725 -1.402767,2.671506 1.1376817,0 2.2753635,0 3.4130452,0 -0.7290721,1.362474 -1.4587477,2.724756 -2.1873954,4.087365 1.2959065,0 2.5918127,0 3.8877185,0 0.7288353,-1.36255 1.4583115,-2.724894 2.1873958,-4.087365 0.413551,0.07949 1.582984,-0.231646 1.07531,0.323906 -0.671289,1.254504 -1.343163,2.50882 -2.0140306,3.763459 1.2959076,0 2.5918126,0 3.8877186,0 0.728835,-1.36255 1.458313,-2.724894 2.187395,-4.087365 1.213254,0 2.426506,0 3.639757,0 0.469813,-0.890358 0.938537,-1.781062 1.40808,-2.671506 -1.206168,0 -2.412335,0 -3.618501,0 0.27453,-0.526268 0.549063,-1.052536 0.823593,-1.578805 1.142405,0 2.284812,0 3.427214,0 0.467343,-0.896506 0.931125,-1.794128 1.393913,-2.6920466 -1.137092,0 -2.274184,0 -3.411275,0 0.729153,-1.378423 1.458085,-2.7569162 2.187397,-4.1352896 -1.295908,0 -2.591815,0 -3.887721,0 -0.730078,1.37813 -1.458112,2.7569086 -2.187395,4.1352896 -0.41444,-0.0797 -1.583002,0.232122 -1.078883,-0.324479 0.671213,-1.270314 1.343996,-2.5401338 2.014063,-3.8108106 -1.294726,0 -2.589453,0 -3.884179,0 -0.04073,0.077137 -0.08147,0.1542746 -0.12221,0.2314119 z m 1.668443,6.5959243 c -0.275122,0.526269 -0.550243,1.052537 -0.825366,1.578805 -0.415811,-0.08001 -1.584217,0.232703 -1.084398,-0.325099 0.218,-0.417902 0.436002,-0.835804 0.654004,-1.253706 0.418585,0 0.837174,0 1.25576,0 z" />
  </g>
</svg>
