<?xml version="1.0" encoding="UTF-8" standalone="no"?>
<!-- Created with Inkscape (http://www.inkscape.org/) -->

<svg
   width="100"
   height="100"
   viewBox="0 0 26.458333 26.458333"
   version="1.1"
   id="svg5"
   inkscape:version="1.1.1 (3bf5ae0d25, 2021-09-20)"
   sodipodi:docname="enum.svg"
   xmlns:inkscape="http://www.inkscape.org/namespaces/inkscape"
   xmlns:sodipodi="http://sodipodi.sourceforge.net/DTD/sodipodi-0.dtd"
   xmlns="http://www.w3.org/2000/svg"
   xmlns:svg="http://www.w3.org/2000/svg">
  <sodipodi:namedview
     id="namedview7"
     pagecolor="#ffffff"
     bordercolor="#666666"
     borderopacity="1.0"
     inkscape:pageshadow="2"
     inkscape:pageopacity="0.0"
     inkscape:pagecheckerboard="0"
     inkscape:document-units="px"
     showgrid="false"
     inkscape:zoom="2.0460068"
     inkscape:cx="129.03183"
     inkscape:cy="116.07977"
     inkscape:window-width="1920"
     inkscape:window-height="1001"
     inkscape:window-x="-9"
     inkscape:window-y="-9"
     inkscape:window-maximized="1"
     inkscape:current-layer="layer1"
     units="px"
     width="100px" />
  <defs
     id="defs2" />
  <g
     inkscape:label="图层 1"
     inkscape:groupmode="layer"
     id="layer1">
    <rect
       style="fill:#ee78ff;fill-opacity:1;stroke:none;stroke-width:0.864658;stroke-miterlimit:4;stroke-dasharray:none"
       id="rect1440"
       width="26.508671"
       height="26.308193"
       x="0.084942333"
       y="0.091440894"
       rx="7.9375"
       ry="7.9375" />
    <path
       id="text3748"
       style="font-style:normal;font-weight:normal;font-size:28.2222px;line-height:1.25;font-family:sans-serif;fill:#000000;fill-opacity:1;stroke:none;stroke-width:0.163407"
       d="M 9.1894531,5.7363281 C 8.0150388,10.56029 6.8437265,15.385255 5.6679688,20.208984 c 3.7102864,0 7.4205732,0 11.1308592,0 0.318782,-1.314824 0.639752,-2.629119 0.960938,-3.943359 -2.283204,0 -4.566407,0 -6.84961,0 0.171875,-0.705729 0.34375,-1.411458 0.515625,-2.117187 2.283203,0 4.566407,0 6.84961,0 0.318342,-1.312487 0.642616,-2.62353 0.96289,-3.935547 -2.284505,0 -4.56901,0 -6.853515,0 0.02358,-0.7570217 0.351222,-1.1281626 1.124609,-0.9335941 1.983203,0 3.966406,0 5.949609,0 0.318817,-1.3153087 0.637469,-2.6306608 0.958985,-3.9453125 -3.710287,0 -7.420573,0 -11.1308596,0 -0.032552,0.1341146 -0.065104,0.2682291 -0.097656,0.4023437 z" />
  </g>
</svg>
