<?xml version="1.0" encoding="UTF-8" standalone="no"?>
<!-- Created with Inkscape (http://www.inkscape.org/) -->

<svg
   width="100"
   height="100"
   viewBox="0 0 26.458333 26.458333"
   version="1.1"
   id="svg5"
   inkscape:version="1.1.1 (3bf5ae0d25, 2021-09-20)"
   sodipodi:docname="enum.svg"
   xmlns:inkscape="http://www.inkscape.org/namespaces/inkscape"
   xmlns:sodipodi="http://sodipodi.sourceforge.net/DTD/sodipodi-0.dtd"
   xmlns="http://www.w3.org/2000/svg"
   xmlns:svg="http://www.w3.org/2000/svg">
  <sodipodi:namedview
     id="namedview7"
     pagecolor="#ffffff"
     bordercolor="#666666"
     borderopacity="1.0"
     inkscape:pageshadow="2"
     inkscape:pageopacity="0.0"
     inkscape:pagecheckerboard="0"
     inkscape:document-units="px"
     showgrid="false"
     inkscape:zoom="4.0920135"
     inkscape:cx="71.358513"
     inkscape:cy="54.129831"
     inkscape:window-width="1920"
     inkscape:window-height="1001"
     inkscape:window-x="-9"
     inkscape:window-y="-9"
     inkscape:window-maximized="1"
     inkscape:current-layer="layer1"
     units="px"
     width="100px" />
  <defs
     id="defs2" />
  <g
     inkscape:label="图层 1"
     inkscape:groupmode="layer"
     id="layer1">
    <rect
       style="fill:#ee78ff;fill-opacity:1;stroke:none;stroke-width:0.864658;stroke-miterlimit:4;stroke-dasharray:none"
       id="rect1440"
       width="26.508671"
       height="26.308193"
       x="0.084942333"
       y="0.091440894"
       rx="7.9375"
       ry="7.9375" />
    <path
       id="text3748"
       style="font-style:normal;font-weight:normal;font-size:28.2222px;line-height:1.25;font-family:sans-serif;fill:#000000;fill-opacity:1;stroke:none;stroke-width:0.241984"
       d="m 8.9892087,3.448301 c -1.4690741,6.5274719 -2.9402539,13.05445 -4.4080035,19.582233 4.4021168,0 8.8042328,0 13.2063498,0 0.234096,-1.04466 0.470019,-2.088894 0.706411,-3.133013 -3.252433,0 -6.504867,0 -9.7572991,0 0.4662306,-2.066391 0.9324626,-4.132782 1.3986931,-6.199173 3.251844,0 6.503689,0 9.755534,0 0.236892,-1.039923 0.472135,-2.080239 0.708176,-3.120365 -3.252433,0 -6.504867,0 -9.7573,0 0.325538,-1.4580979 0.651076,-2.9161955 0.976613,-4.3742931 3.252434,0 6.504867,0 9.7573,0 0.23353,-1.0452572 0.471382,-2.0894991 0.704645,-3.1348195 -4.402117,-1e-7 -8.804233,0 -13.20635,0 C 9.045722,3.1953473 9.017465,3.3218242 8.9892087,3.448301 Z" />
  </g>
</svg>
