<?xml version="1.0" encoding="UTF-8" standalone="no"?>
<!-- Created with Inkscape (http://www.inkscape.org/) -->

<svg
   width="100"
   height="100"
   viewBox="0 0 26.458333 26.458333"
   version="1.1"
   id="svg5"
   inkscape:version="1.1.1 (3bf5ae0d25, 2021-09-20)"
   sodipodi:docname="global.svg"
   xmlns:inkscape="http://www.inkscape.org/namespaces/inkscape"
   xmlns:sodipodi="http://sodipodi.sourceforge.net/DTD/sodipodi-0.dtd"
   xmlns="http://www.w3.org/2000/svg"
   xmlns:svg="http://www.w3.org/2000/svg">
  <sodipodi:namedview
     id="namedview7"
     pagecolor="#ffffff"
     bordercolor="#666666"
     borderopacity="1.0"
     inkscape:pageshadow="2"
     inkscape:pageopacity="0.0"
     inkscape:pagecheckerboard="0"
     inkscape:document-units="px"
     showgrid="false"
     inkscape:zoom="0.25575084"
     inkscape:cx="-1102.6357"
     inkscape:cy="494.62202"
     inkscape:window-width="1920"
     inkscape:window-height="1001"
     inkscape:window-x="-9"
     inkscape:window-y="-9"
     inkscape:window-maximized="1"
     inkscape:current-layer="layer1"
     units="px"
     width="100px" />
  <defs
     id="defs2" />
  <g
     inkscape:label="图层 1"
     inkscape:groupmode="layer"
     id="layer1">
    <rect
       style="fill:#eeff78;fill-opacity:1;stroke:none;stroke-width:0.864658;stroke-miterlimit:4;stroke-dasharray:none"
       id="rect1440"
       width="26.508671"
       height="26.308193"
       x="0.084942333"
       y="0.091440894"
       rx="7.9375"
       ry="7.9375" />
    <path
       id="text3748"
       style="font-style:normal;font-weight:normal;font-size:28.2222px;line-height:1.25;font-family:sans-serif;fill:#000000;fill-opacity:1;stroke:none;stroke-width:0.210433"
       d="M 14.232891,4.5468276 C 11.355794,4.687091 8.9611193,6.8439611 7.9435029,9.3630349 7.2026492,11.179067 6.8721732,13.285356 7.5586686,15.163576 c 0.5549824,1.5544 2.2493397,2.478887 3.8994344,2.415904 1.254581,0.04396 2.49034,-0.308243 3.534701,-0.981084 -0.245419,1.29269 -1.019806,2.657656 -2.442834,2.963647 C 10.85139,19.996734 9.0796483,19.511723 7.4819585,18.9631 6.864092,18.760889 6.9664477,19.43568 6.8285668,19.819073 6.6806206,20.443412 6.5319822,21.067597 6.384656,21.692075 c 2.4497993,0.700167 5.189562,0.986691 7.613324,0.04438 2.19433,-0.863772 3.429904,-3.054325 3.969202,-5.185809 0.949789,-3.886523 1.838384,-7.7875441 2.765965,-11.6793471 -0.921251,0 -1.842501,0 -2.763752,0 -0.08511,0.5843715 -0.531756,0.1400761 -0.890769,0.058162 C 16.170588,4.6079505 15.194979,4.5042675 14.232891,4.5468276 Z m 0.37838,2.5682663 c 0.862053,2.21e-4 1.708958,0.230491 2.491003,0.570896 -0.477179,2.027982 -0.954359,4.0559641 -1.431538,6.0839461 -1.316611,0.789988 -2.973574,1.571099 -4.520066,0.953534 -1.053005,-0.583247 -0.979147,-1.95393 -0.862635,-2.965416 0.214269,-1.8806369 1.269229,-3.9206931 3.257705,-4.4996021 0.345102,-0.09834 0.706264,-0.141227 1.065531,-0.143358 z" />
  </g>
</svg>
