<?xml version="1.0" encoding="UTF-8" standalone="no"?>
<!-- Created with Inkscape (http://www.inkscape.org/) -->

<svg
   width="100"
   height="100"
   viewBox="0 0 26.458333 26.458333"
   version="1.1"
   id="svg5"
   inkscape:version="1.1.1 (3bf5ae0d25, 2021-09-20)"
   sodipodi:docname="global.svg"
   xmlns:inkscape="http://www.inkscape.org/namespaces/inkscape"
   xmlns:sodipodi="http://sodipodi.sourceforge.net/DTD/sodipodi-0.dtd"
   xmlns="http://www.w3.org/2000/svg"
   xmlns:svg="http://www.w3.org/2000/svg">
  <sodipodi:namedview
     id="namedview7"
     pagecolor="#ffffff"
     bordercolor="#666666"
     borderopacity="1.0"
     inkscape:pageshadow="2"
     inkscape:pageopacity="0.0"
     inkscape:pagecheckerboard="0"
     inkscape:document-units="px"
     showgrid="false"
     inkscape:zoom="4.0920135"
     inkscape:cx="71.358513"
     inkscape:cy="54.129831"
     inkscape:window-width="1920"
     inkscape:window-height="1001"
     inkscape:window-x="-9"
     inkscape:window-y="-9"
     inkscape:window-maximized="1"
     inkscape:current-layer="layer1"
     units="px"
     width="100px" />
  <defs
     id="defs2" />
  <g
     inkscape:label="图层 1"
     inkscape:groupmode="layer"
     id="layer1">
    <rect
       style="fill:#eeff78;fill-opacity:1;stroke:none;stroke-width:0.864658;stroke-miterlimit:4;stroke-dasharray:none"
       id="rect1440"
       width="26.508671"
       height="26.308193"
       x="0.084942333"
       y="0.091440894"
       rx="7.9375"
       ry="7.9375" />
    <path
       id="text3748"
       style="font-style:normal;font-weight:normal;font-size:28.2222px;line-height:1.25;font-family:sans-serif;fill:#000000;fill-opacity:1;stroke:none;stroke-width:0.264583"
       d="M 14.296875,2.5449219 C 10.732631,2.7239109 7.7660282,5.4762747 6.5053704,8.6908442 5.5875761,11.008267 5.1781714,13.696085 6.0286248,16.092865 c 0.6875308,1.983558 2.7865566,3.163288 4.8307502,3.082916 1.554216,0.05609 3.085116,-0.393347 4.378906,-1.251953 -0.304034,1.64959 -1.26337,3.391412 -3.026265,3.781885 -2.104258,0.554705 -4.2991507,-0.06421 -6.2784222,-0.764307 -0.7654336,-0.25804 -0.638632,0.603056 -0.8094435,1.0923 -0.1832806,0.796714 -0.3674188,1.593231 -0.5499315,2.390122 3.0348933,0.893478 6.4290032,1.259109 9.4316402,0.05664 2.718409,-1.102252 4.24908,-3.897599 4.91718,-6.617567 1.17663,-4.95956 2.277452,-9.9376205 3.42657,-14.9039176 -1.141276,0 -2.282552,0 -3.423828,0 -0.105439,0.7457116 -0.658757,0.1787499 -1.103515,0.07422 C 16.697359,2.6229203 15.488741,2.4906113 14.296875,2.5449219 Z m 0.46875,3.2773437 c 1.06794,2.817e-4 2.117114,0.2941268 3.085937,0.7285156 -0.591145,2.5878907 -1.182291,5.1757818 -1.773437,7.7636718 -1.631062,1.008097 -3.683762,2.004866 -5.599609,1.216797 C 9.1740188,14.786974 9.2655165,13.037856 9.4098554,11.747107 9.6752987,9.3472424 10.982219,6.7439436 13.445609,6.0052031 13.873133,5.8797113 14.320552,5.8249847 14.765625,5.8222656 Z" />
  </g>
</svg>
