<?xml version="1.0" encoding="UTF-8" standalone="no"?>
<!-- Created with Inkscape (http://www.inkscape.org/) -->

<svg
   width="100"
   height="100"
   viewBox="0 0 26.458333 26.458333"
   version="1.1"
   id="svg5"
   inkscape:version="1.1.1 (3bf5ae0d25, 2021-09-20)"
   sodipodi:docname="global_method.svg"
   xmlns:inkscape="http://www.inkscape.org/namespaces/inkscape"
   xmlns:sodipodi="http://sodipodi.sourceforge.net/DTD/sodipodi-0.dtd"
   xmlns="http://www.w3.org/2000/svg"
   xmlns:svg="http://www.w3.org/2000/svg">
  <sodipodi:namedview
     id="namedview7"
     pagecolor="#ffffff"
     bordercolor="#666666"
     borderopacity="1.0"
     inkscape:pageshadow="2"
     inkscape:pageopacity="0.0"
     inkscape:pagecheckerboard="0"
     inkscape:document-units="px"
     showgrid="false"
     inkscape:zoom="4.0920135"
     inkscape:cx="71.358513"
     inkscape:cy="54.129831"
     inkscape:window-width="1920"
     inkscape:window-height="1001"
     inkscape:window-x="-9"
     inkscape:window-y="-9"
     inkscape:window-maximized="1"
     inkscape:current-layer="layer1"
     units="px"
     width="100px" />
  <defs
     id="defs2" />
  <g
     inkscape:label="图层 1"
     inkscape:groupmode="layer"
     id="layer1">
    <rect
       style="fill:#94fefe;fill-opacity:1;stroke:none;stroke-width:0.864658;stroke-miterlimit:4;stroke-dasharray:none"
       id="rect1440"
       width="26.508671"
       height="26.308193"
       x="0.084942333"
       y="0.091440894"
       rx="7.9375"
       ry="7.9375" />
    <path
       id="text3748"
       style="font-style:normal;font-weight:normal;font-size:28.2222px;line-height:1.25;font-family:sans-serif;fill:#000000;fill-opacity:1;stroke:none;stroke-width:0.264583"
       d="m 16.098372,1.9030648 c -2.396461,0.096413 -4.613442,1.6362393 -5.570083,3.8295959 -0.36319,0.7376088 -0.5902985,1.5333253 -0.7639008,2.3344666 -0.5800781,0 -1.1601562,0 -1.7402343,0 -0.2468457,1.0424167 -0.4979783,2.0838227 -0.75,3.1249997 0.5391604,0.06459 1.4021894,-0.129832 1.7377815,0.09755 -0.9942104,4.409486 -1.9864546,8.819416 -2.9819222,13.228618 1.234375,0 2.46875,0 3.703125,0 0.9986138,-4.442514 2.0016398,-8.884039 3.0019528,-13.326172 1.528646,0 3.057292,0 4.585938,0 0.246845,-1.042417 0.497978,-2.0838222 0.75,-3.1249997 -1.556641,0 -3.113282,0 -4.669922,0 0.284997,-1.2711599 0.9852,-2.7642859 2.456475,-2.9013647 1.115419,-0.2366453 2.2128,0.189347 3.295869,0.3212866 0.635475,0.070618 0.396076,-0.9653125 0.645549,-1.3814116 0.145406,-0.6156914 0.291087,-1.2313178 0.436091,-1.847104 -1.363155,-0.2619531 -2.745758,-0.446203 -4.136719,-0.3554688 z" />
  </g>
</svg>
