<?xml version="1.0" encoding="UTF-8" standalone="no"?>
<!-- Created with Inkscape (http://www.inkscape.org/) -->

<svg
   width="100"
   height="100"
   viewBox="0 0 26.458333 26.458333"
   version="1.1"
   id="svg5"
   inkscape:version="1.1.1 (3bf5ae0d25, 2021-09-20)"
   sodipodi:docname="method_inherited.svg"
   xmlns:inkscape="http://www.inkscape.org/namespaces/inkscape"
   xmlns:sodipodi="http://sodipodi.sourceforge.net/DTD/sodipodi-0.dtd"
   xmlns="http://www.w3.org/2000/svg"
   xmlns:svg="http://www.w3.org/2000/svg">
  <sodipodi:namedview
     id="namedview7"
     pagecolor="#ffffff"
     bordercolor="#666666"
     borderopacity="1.0"
     inkscape:pageshadow="2"
     inkscape:pageopacity="0.0"
     inkscape:pagecheckerboard="0"
     inkscape:document-units="px"
     showgrid="false"
     inkscape:zoom="0.18084316"
     inkscape:cx="-1797.1374"
     inkscape:cy="141.00617"
     inkscape:window-width="1920"
     inkscape:window-height="1001"
     inkscape:window-x="-9"
     inkscape:window-y="-9"
     inkscape:window-maximized="1"
     inkscape:current-layer="layer1"
     units="px"
     width="100px" />
  <defs
     id="defs2" />
  <g
     inkscape:label="图层 1"
     inkscape:groupmode="layer"
     id="layer1">
    <rect
       style="fill:#78ff9a;fill-opacity:1;stroke:none;stroke-width:0.864658;stroke-miterlimit:4;stroke-dasharray:none"
       id="rect1440"
       width="26.508604"
       height="26.308193"
       x="0.084942333"
       y="0.091440894"
       rx="7.9375"
       ry="7.9375" />
    <rect
       style="fill:#2e5c00;fill-opacity:1;stroke-width:1.29084"
       id="rect943"
       width="9.2650747"
       height="7.6662278"
       x="16.799305"
       y="18.204239" />
    <path
       style="fill:none;stroke:#2e5c00;stroke-width:1.20024;stroke-linecap:butt;stroke-linejoin:miter;stroke-miterlimit:4;stroke-dasharray:none;stroke-opacity:1"
       d="m 18.405277,18.82478 c 0,0 -0.115033,-2.202589 0.196788,-3.095226 0.227026,-0.6499 0.576784,-1.400067 1.311921,-1.731228 0.895403,-0.403357 2.193025,-0.410948 3.083015,0 0.715985,0.330603 1.240123,1.71786 1.240123,1.71786"
       id="path1124"
       sodipodi:nodetypes="csssc" />
    <path
       id="text3748"
       style="font-style:normal;font-weight:normal;font-size:28.2222px;line-height:1.25;font-family:sans-serif;fill:#000000;fill-opacity:1;stroke:none;stroke-width:0.172112"
       d="m 15.530536,4.8456939 c -2.018957,0.085476 -3.610092,1.804393 -4.073859,3.6928082 0.0053,0.5715984 -0.333383,0.6654434 -0.837069,0.5735214 -0.6206525,-0.1768795 -0.410985,0.67549 -0.594007,1.0402305 -0.1409125,0.665344 -0.2821935,1.33061 -0.4226865,1.996044 0.315827,0.09375 0.9016195,-0.03664 1.0580995,0.122006 -0.606209,3.048056 -1.2153635,6.095525 -1.8196925,9.143955 1.064321,0 2.1286425,0 3.1929635,0 0.613781,-3.074255 1.22413,-6.1492 1.836585,-9.223721 0.932895,0 1.865791,0 2.798687,0 0.218953,-1.02595 0.434324,-2.052667 0.653756,-3.0785145 -0.941881,0 -1.883763,0 -2.825645,0 0.156543,-0.648612 0.687401,-1.2411299 1.405241,-1.1388144 0.668264,-0.038663 1.440442,0.5554592 2.026983,0.067585 0.349226,-0.519295 0.265111,-1.2123521 0.473121,-1.7976658 -0.0089,-0.4181048 0.542584,-1.2059359 -0.203457,-1.136497 -0.875642,-0.1860444 -1.771474,-0.3266582 -2.66902,-0.2609374 z" />
  </g>
</svg>
