<?xml version="1.0" encoding="UTF-8" standalone="no"?>
<!-- Created with Inkscape (http://www.inkscape.org/) -->

<svg
   width="100"
   height="100"
   viewBox="0 0 26.458333 26.458333"
   version="1.1"
   id="svg5"
   inkscape:version="1.1.1 (3bf5ae0d25, 2021-09-20)"
   sodipodi:docname="method_private.svg"
   xmlns:inkscape="http://www.inkscape.org/namespaces/inkscape"
   xmlns:sodipodi="http://sodipodi.sourceforge.net/DTD/sodipodi-0.dtd"
   xmlns="http://www.w3.org/2000/svg"
   xmlns:svg="http://www.w3.org/2000/svg">
  <sodipodi:namedview
     id="namedview7"
     pagecolor="#ffffff"
     bordercolor="#666666"
     borderopacity="1.0"
     inkscape:pageshadow="2"
     inkscape:pageopacity="0.0"
     inkscape:pagecheckerboard="0"
     inkscape:document-units="px"
     showgrid="false"
     inkscape:zoom="5.786981"
     inkscape:cx="87.092043"
     inkscape:cy="52.099704"
     inkscape:window-width="1920"
     inkscape:window-height="1001"
     inkscape:window-x="-9"
     inkscape:window-y="-9"
     inkscape:window-maximized="1"
     inkscape:current-layer="layer1"
     units="px"
     width="100px" />
  <defs
     id="defs2" />
  <g
     inkscape:label="图层 1"
     inkscape:groupmode="layer"
     id="layer1">
    <rect
       style="fill:#ff7878;fill-opacity:1;stroke:none;stroke-width:0.864658;stroke-miterlimit:4;stroke-dasharray:none"
       id="rect1440"
       width="26.508604"
       height="26.308193"
       x="0.084942333"
       y="0.091440894"
       rx="7.9375"
       ry="7.9375" />
    <path
       id="text3748"
       style="font-style:normal;font-weight:normal;font-size:28.2222px;line-height:1.25;font-family:sans-serif;fill:#000000;fill-opacity:1;stroke:none;stroke-width:0.264583"
       d="m 16.033203,2.2910156 c -2.39625,0.096289 -4.613548,1.636537 -5.570083,3.8295959 -0.363574,0.7372758 -0.5870713,1.5342606 -0.7619481,2.3344666 -0.5807292,0 -1.1614584,0 -1.7421875,0 -0.2468457,1.0424167 -0.4979783,2.0838229 -0.75,3.1249999 0.5391604,0.06459 1.4021894,-0.129832 1.7377815,0.09755 -0.9942104,4.409486 -1.9864546,8.819416 -2.9819221,13.228618 1.235026,0 2.470052,0 3.7050781,0 0.9986141,-4.442514 2.0016401,-8.884039 3.0019531,-13.326172 1.527995,0 3.05599,0 4.583984,0 0.246846,-1.042417 0.497979,-2.0838224 0.75,-3.1249999 -1.55664,0 -3.113281,0 -4.669921,0 0.285427,-1.2715784 0.986477,-2.7622689 2.456475,-2.9013647 1.115419,-0.2366453 2.2128,0.189347 3.295868,0.3212866 0.635476,0.070618 0.396077,-0.9653125 0.64555,-1.3814116 0.145405,-0.6156914 0.291087,-1.2313178 0.436091,-1.847104 -1.363153,-0.2619542 -2.74576,-0.4462057 -4.136719,-0.3554688 z" />
    <rect
       style="fill:#800000;fill-opacity:1;stroke-width:1.29084"
       id="rect943"
       width="9.2650747"
       height="7.6662278"
       x="16.799305"
       y="18.204239" />
    <path
       style="fill:none;stroke:#800000;stroke-width:1.20024;stroke-linecap:butt;stroke-linejoin:miter;stroke-miterlimit:4;stroke-dasharray:none;stroke-opacity:1"
       d="m 18.405277,19.373425 c 0,0 -0.115033,-2.202589 0.196788,-3.095226 0.227026,-0.6499 0.576784,-1.400067 1.311921,-1.731228 0.895403,-0.403357 1.932098,-0.397331 2.762972,0 0.644664,0.308283 1.095023,0.999563 1.34576,1.668713 0.375005,1.000787 0.122965,3.203858 0.122965,3.203858"
       id="path1124"
       sodipodi:nodetypes="cssaac" />
  </g>
</svg>
