<?xml version="1.0" encoding="UTF-8" standalone="no"?>
<!-- Created with Inkscape (http://www.inkscape.org/) -->

<svg
   width="100"
   height="100"
   viewBox="0 0 26.458333 26.458333"
   version="1.1"
   id="svg5"
   inkscape:version="1.1.1 (3bf5ae0d25, 2021-09-20)"
   sodipodi:docname="namespace.svg"
   xmlns:inkscape="http://www.inkscape.org/namespaces/inkscape"
   xmlns:sodipodi="http://sodipodi.sourceforge.net/DTD/sodipodi-0.dtd"
   xmlns="http://www.w3.org/2000/svg"
   xmlns:svg="http://www.w3.org/2000/svg">
  <sodipodi:namedview
     id="namedview7"
     pagecolor="#ffffff"
     bordercolor="#666666"
     borderopacity="1.0"
     inkscape:pageshadow="2"
     inkscape:pageopacity="0.0"
     inkscape:pagecheckerboard="0"
     inkscape:document-units="px"
     showgrid="false"
     inkscape:zoom="0.25575084"
     inkscape:cx="-961.87366"
     inkscape:cy="858.25719"
     inkscape:window-width="1920"
     inkscape:window-height="1001"
     inkscape:window-x="-9"
     inkscape:window-y="-9"
     inkscape:window-maximized="1"
     inkscape:current-layer="layer1"
     units="px"
     width="100px" />
  <defs
     id="defs2" />
  <g
     inkscape:label="图层 1"
     inkscape:groupmode="layer"
     id="layer1">
    <rect
       style="fill:#ffb1b1;fill-opacity:1;stroke:none;stroke-width:0.864658;stroke-miterlimit:4;stroke-dasharray:none"
       id="rect1440"
       width="26.508671"
       height="26.308193"
       x="0.084942333"
       y="0.091440894"
       rx="7.9375"
       ry="7.9375" />
    <path
       id="text3748"
       style="font-style:normal;font-weight:normal;font-size:28.2222px;line-height:1.25;font-family:sans-serif;fill:#000000;fill-opacity:1;stroke:none;stroke-width:0.162797"
       d="M 9.7154675,6.4303771 C 8.7106611,11.212943 7.709492,15.996517 6.7062961,20.779516 c 0.9490205,0 1.898041,0 2.8470614,0 0.6827625,-3.256872 1.3661655,-6.513611 2.0491755,-9.770432 0.903847,3.256811 1.807706,6.513618 2.711547,9.770432 0.973928,0 1.947856,0 2.921784,0 1.021712,-4.873094 2.044409,-9.745984 3.066163,-14.6190682 -0.94902,0 -1.898041,0 -2.847061,0 -0.611288,2.9133904 -1.223497,5.8265902 -1.835139,8.7399062 -0.808851,-2.913305 -1.617791,-5.8265852 -2.426588,-8.7399062 -1.139838,0 -2.279675,0 -3.4195125,0 -0.01942,0.089976 -0.03884,0.1799528 -0.05826,0.2699293 z" />
  </g>
</svg>
