<?xml version="1.0" encoding="UTF-8" standalone="no"?>
<!-- Created with Inkscape (http://www.inkscape.org/) -->

<svg
   width="100"
   height="100"
   viewBox="0 0 26.458333 26.458333"
   version="1.1"
   id="svg5"
   inkscape:version="1.1.1 (3bf5ae0d25, 2021-09-20)"
   sodipodi:docname="static_var.svg"
   xmlns:inkscape="http://www.inkscape.org/namespaces/inkscape"
   xmlns:sodipodi="http://sodipodi.sourceforge.net/DTD/sodipodi-0.dtd"
   xmlns="http://www.w3.org/2000/svg"
   xmlns:svg="http://www.w3.org/2000/svg">
  <sodipodi:namedview
     id="namedview7"
     pagecolor="#ffffff"
     bordercolor="#666666"
     borderopacity="1.0"
     inkscape:pageshadow="2"
     inkscape:pageopacity="0.0"
     inkscape:pagecheckerboard="0"
     inkscape:document-units="px"
     showgrid="false"
     inkscape:zoom="0.25575084"
     inkscape:cx="-825.02171"
     inkscape:cy="404.69075"
     inkscape:window-width="1920"
     inkscape:window-height="1001"
     inkscape:window-x="-9"
     inkscape:window-y="-9"
     inkscape:window-maximized="1"
     inkscape:current-layer="layer1"
     units="px"
     width="100px" />
  <defs
     id="defs2" />
  <g
     inkscape:label="图层 1"
     inkscape:groupmode="layer"
     id="layer1">
    <rect
       style="fill:#ff7878;fill-opacity:1;stroke:none;stroke-width:0.864658;stroke-miterlimit:4;stroke-dasharray:none"
       id="rect1440"
       width="26.508671"
       height="26.308193"
       x="0.084942333"
       y="0.091440894"
       rx="7.9375"
       ry="7.9375" />
    <g
       aria-label="V"
       id="text2532"
       style="font-size:10.5833px;line-height:1.25;stroke-width:0.264583"
       transform="matrix(1.1921924,0,0,1.1711689,-2.4714737,-1.693051)">
      <path
         id="path12593"
         style="font-weight:bold;font-family:'Century Gothic';-inkscape-font-specification:'Century Gothic Bold';stroke-width:0.396684"
         d="m 7.7480469,7.5859375 c 1.4334854,3.7904055 2.8678491,7.5804795 4.3007811,11.3710935 0.963542,0 1.927083,0 2.890625,0 1.549442,-4.029311 3.100742,-8.057909 4.648438,-12.0878904 -1.145834,0 -2.291667,0 -3.4375,0 -0.879988,2.2925533 -1.757639,4.5860044 -2.636719,6.8789064 -0.866461,-2.292998 -1.73355,-4.5857576 -2.59961,-6.8789064 -1.1458328,0 -2.2916662,0 -3.4374995,0 0.090495,0.2389323 0.1809896,0.4778646 0.2714844,0.7167969 z" />
    </g>
  </g>
</svg>
