<?xml version="1.0" encoding="UTF-8" standalone="no"?>
<!-- Created with Inkscape (http://www.inkscape.org/) -->

<svg
   width="100"
   height="100"
   viewBox="0 0 26.458333 26.458333"
   version="1.1"
   id="svg5"
   inkscape:version="1.1.1 (3bf5ae0d25, 2021-09-20)"
   sodipodi:docname="static_method.svg"
   xmlns:inkscape="http://www.inkscape.org/namespaces/inkscape"
   xmlns:sodipodi="http://sodipodi.sourceforge.net/DTD/sodipodi-0.dtd"
   xmlns="http://www.w3.org/2000/svg"
   xmlns:svg="http://www.w3.org/2000/svg">
  <sodipodi:namedview
     id="namedview7"
     pagecolor="#ffffff"
     bordercolor="#666666"
     borderopacity="1.0"
     inkscape:pageshadow="2"
     inkscape:pageopacity="0.0"
     inkscape:pagecheckerboard="0"
     inkscape:document-units="px"
     showgrid="false"
     inkscape:zoom="4.0920135"
     inkscape:cx="71.358513"
     inkscape:cy="54.129831"
     inkscape:window-width="1920"
     inkscape:window-height="1001"
     inkscape:window-x="-9"
     inkscape:window-y="-9"
     inkscape:window-maximized="1"
     inkscape:current-layer="layer1"
     units="px"
     width="100px" />
  <defs
     id="defs2" />
  <g
     inkscape:label="图层 1"
     inkscape:groupmode="layer"
     id="layer1">
    <rect
       style="fill:#ff7878;fill-opacity:1;stroke:none;stroke-width:0.864658;stroke-miterlimit:4;stroke-dasharray:none"
       id="rect1440"
       width="26.508671"
       height="26.308193"
       x="0.084942333"
       y="0.091440894"
       rx="7.9375"
       ry="7.9375" />
    <path
       id="text3748"
       style="font-style:normal;font-weight:normal;font-size:28.2222px;line-height:1.25;font-family:sans-serif;fill:#000000;fill-opacity:1;stroke:none;stroke-width:0.172112"
       d="m 15.004731,4.4616455 c -2.018957,0.085476 -3.610092,1.804393 -4.073859,3.6928082 0.0053,0.5715984 -0.333383,0.6654434 -0.837069,0.5735214 C 9.4731506,8.5510956 9.6828178,9.4034651 9.4997956,9.7682057 9.3588836,10.43355 9.2176026,11.098816 9.0771096,11.76425 9.3929366,11.858 9.9787288,11.72761 10.135209,11.886256 9.5289996,14.934311 8.9198456,17.98178 8.3155166,21.03021 c 1.064321,0 2.1286424,0 3.1929634,0 0.613781,-3.074255 1.22413,-6.1492 1.836585,-9.22372 0.932895,0 1.865791,0 2.798687,0 0.218953,-1.02595 0.434324,-2.0526673 0.653756,-3.0785149 -0.941881,0 -1.883763,0 -2.825645,0 0.156543,-0.648612 0.687401,-1.2411299 1.405241,-1.1388144 0.668264,-0.038663 1.440442,0.5554592 2.026983,0.067585 0.349226,-0.519295 0.265111,-1.2123521 0.473121,-1.7976658 -0.0089,-0.4181048 0.542584,-1.2059359 -0.203457,-1.136497 -0.875642,-0.1860444 -1.771474,-0.3266582 -2.66902,-0.2609374 z" />
  </g>
</svg>
