<?xml version="1.0" encoding="UTF-8" standalone="no"?>
<!-- Created with Inkscape (http://www.inkscape.org/) -->

<svg
   width="100"
   height="100"
   viewBox="0 0 26.458333 26.458333"
   version="1.1"
   id="svg5"
   inkscape:version="1.1.1 (3bf5ae0d25, 2021-09-20)"
   sodipodi:docname="static_method.svg"
   xmlns:inkscape="http://www.inkscape.org/namespaces/inkscape"
   xmlns:sodipodi="http://sodipodi.sourceforge.net/DTD/sodipodi-0.dtd"
   xmlns="http://www.w3.org/2000/svg"
   xmlns:svg="http://www.w3.org/2000/svg">
  <sodipodi:namedview
     id="namedview7"
     pagecolor="#ffffff"
     bordercolor="#666666"
     borderopacity="1.0"
     inkscape:pageshadow="2"
     inkscape:pageopacity="0.0"
     inkscape:pagecheckerboard="0"
     inkscape:document-units="px"
     showgrid="false"
     inkscape:zoom="4.0920135"
     inkscape:cx="71.358513"
     inkscape:cy="54.129831"
     inkscape:window-width="1920"
     inkscape:window-height="1001"
     inkscape:window-x="-9"
     inkscape:window-y="-9"
     inkscape:window-maximized="1"
     inkscape:current-layer="layer1"
     units="px"
     width="100px" />
  <defs
     id="defs2" />
  <g
     inkscape:label="图层 1"
     inkscape:groupmode="layer"
     id="layer1">
    <rect
       style="fill:#ff7878;fill-opacity:1;stroke:none;stroke-width:0.864658;stroke-miterlimit:4;stroke-dasharray:none"
       id="rect1440"
       width="26.508671"
       height="26.308193"
       x="0.084942333"
       y="0.091440894"
       rx="7.9375"
       ry="7.9375" />
    <path
       id="text3748"
       style="font-style:normal;font-weight:normal;font-size:28.2222px;line-height:1.25;font-family:sans-serif;fill:#000000;fill-opacity:1;stroke:none;stroke-width:0.264583"
       d="M 15.710938,1.3847656 C 13.316447,1.4840766 11.098795,3.019205 10.142013,5.21203 9.7742335,5.9485136 9.5529711,6.7477036 9.3769531,7.5488281 c -0.5800781,0 -1.1601562,0 -1.7402343,0 -0.2468457,1.0424167 -0.4979783,2.0838225 -0.75,3.1249999 0.5391604,0.06459 1.4021894,-0.129832 1.7377815,0.09755 C 7.6302899,15.180868 6.6380457,19.590798 5.6425781,24 c 1.234375,0 2.46875,0 3.703125,0 0.9986139,-4.442514 2.0016399,-8.884039 3.0019529,-13.326172 1.528646,0 3.057292,0 4.585938,0 0.246845,-1.0424165 0.497978,-2.0838224 0.75,-3.1249999 -1.557292,0 -3.114584,0 -4.671875,0 0.287133,-1.2699393 0.986594,-2.7612544 2.456562,-2.9008859 1.116302,-0.2338351 2.212161,0.1866611 3.295782,0.3208078 0.635475,0.070618 0.396076,-0.9653125 0.645549,-1.3814116 C 19.555018,2.971647 19.700699,2.3560206 19.845703,1.7402344 18.483697,1.4789323 17.100471,1.2968915 15.710938,1.3847656 Z" />
  </g>
</svg>
