<?xml version="1.0" encoding="UTF-8" standalone="no"?>
<!-- Created with Inkscape (http://www.inkscape.org/) -->

<svg
   width="100"
   height="100"
   viewBox="0 0 26.458333 26.458333"
   version="1.1"
   id="svg5"
   inkscape:version="1.1.1 (3bf5ae0d25, 2021-09-20)"
   sodipodi:docname="var_public.svg"
   xmlns:inkscape="http://www.inkscape.org/namespaces/inkscape"
   xmlns:sodipodi="http://sodipodi.sourceforge.net/DTD/sodipodi-0.dtd"
   xmlns="http://www.w3.org/2000/svg"
   xmlns:svg="http://www.w3.org/2000/svg">
  <sodipodi:namedview
     id="namedview7"
     pagecolor="#ffffff"
     bordercolor="#666666"
     borderopacity="1.0"
     inkscape:pageshadow="2"
     inkscape:pageopacity="0.0"
     inkscape:pagecheckerboard="0"
     inkscape:document-units="px"
     showgrid="false"
     inkscape:zoom="5.786981"
     inkscape:cx="87.092043"
     inkscape:cy="52.099704"
     inkscape:window-width="1920"
     inkscape:window-height="1001"
     inkscape:window-x="-9"
     inkscape:window-y="-9"
     inkscape:window-maximized="1"
     inkscape:current-layer="layer1"
     units="px"
     width="100px" />
  <defs
     id="defs2" />
  <g
     inkscape:label="图层 1"
     inkscape:groupmode="layer"
     id="layer1">
    <rect
       style="fill:#78ff9a;fill-opacity:1;stroke:none;stroke-width:0.864658;stroke-miterlimit:4;stroke-dasharray:none"
       id="rect1440"
       width="26.508604"
       height="26.308193"
       x="0.084942333"
       y="0.091440894"
       rx="7.9375"
       ry="7.9375" />
    <rect
       style="fill:#2e5c00;fill-opacity:1;stroke-width:1.29084"
       id="rect943"
       width="9.2650747"
       height="7.6662278"
       x="16.799305"
       y="18.204239" />
    <path
       style="fill:none;stroke:#2e5c00;stroke-width:1.20024;stroke-linecap:butt;stroke-linejoin:miter;stroke-miterlimit:4;stroke-dasharray:none;stroke-opacity:1"
       d="m 18.405277,18.82478 c 0,0 -0.115033,-2.202589 0.196788,-3.095226 0.227026,-0.6499 0.576784,-1.400067 1.311921,-1.731228 0.895403,-0.403357 2.193025,-0.410948 3.083015,0 0.715985,0.330603 1.240123,1.71786 1.240123,1.71786"
       id="path1124"
       sodipodi:nodetypes="csssc" />
    <g
       aria-label="V"
       id="text2532"
       style="font-size:10.5833px;line-height:1.25;stroke-width:0.264583"
       transform="matrix(1.1921924,0,0,1.1711689,-2.8740896,-2.1387989)">
      <path
         id="path12593"
         style="font-weight:bold;font-family:'Century Gothic';-inkscape-font-specification:'Century Gothic Bold';stroke-width:0.396684"
         d="m 7.7480469,7.5859375 c 1.4334854,3.7904055 2.8678491,7.5804795 4.3007811,11.3710935 0.963542,0 1.927083,0 2.890625,0 1.549442,-4.029311 3.100742,-8.057909 4.648438,-12.0878904 -1.145834,0 -2.291667,0 -3.4375,0 -0.879988,2.2925533 -1.757639,4.5860044 -2.636719,6.8789064 -0.866461,-2.292998 -1.73355,-4.5857576 -2.59961,-6.8789064 -1.1458328,0 -2.2916662,0 -3.4374995,0 0.090495,0.2389323 0.1809896,0.4778646 0.2714844,0.7167969 z" />
    </g>
  </g>
</svg>
