<?xml version="1.0" encoding="UTF-8" standalone="no"?>
<!-- Created with Inkscape (http://www.inkscape.org/) -->

<svg
   width="100"
   height="100"
   viewBox="0 0 26.458333 26.458333"
   version="1.1"
   id="svg5"
   inkscape:version="1.1.1 (3bf5ae0d25, 2021-09-20)"
   sodipodi:docname="var_protected.svg"
   xmlns:inkscape="http://www.inkscape.org/namespaces/inkscape"
   xmlns:sodipodi="http://sodipodi.sourceforge.net/DTD/sodipodi-0.dtd"
   xmlns="http://www.w3.org/2000/svg"
   xmlns:svg="http://www.w3.org/2000/svg">
  <sodipodi:namedview
     id="namedview7"
     pagecolor="#ffffff"
     bordercolor="#666666"
     borderopacity="1.0"
     inkscape:pageshadow="2"
     inkscape:pageopacity="0.0"
     inkscape:pagecheckerboard="0"
     inkscape:document-units="px"
     showgrid="false"
     inkscape:zoom="5.786981"
     inkscape:cx="87.092043"
     inkscape:cy="52.099704"
     inkscape:window-width="1920"
     inkscape:window-height="1001"
     inkscape:window-x="-9"
     inkscape:window-y="-9"
     inkscape:window-maximized="1"
     inkscape:current-layer="layer1"
     units="px"
     width="100px" />
  <defs
     id="defs2" />
  <g
     inkscape:label="图层 1"
     inkscape:groupmode="layer"
     id="layer1">
    <rect
       style="fill:#ffaa78;fill-opacity:1;stroke:none;stroke-width:0.864658;stroke-miterlimit:4;stroke-dasharray:none"
       id="rect1440"
       width="26.508604"
       height="26.308193"
       x="0.084942333"
       y="0.091440894"
       rx="7.9375"
       ry="7.9375" />
    <path
       id="text3748"
       style="font-style:normal;font-weight:normal;font-size:28.2222px;line-height:1.25;font-family:sans-serif;fill:#000000;fill-opacity:1;stroke:none;stroke-width:0.264583"
       d="m 3.3242188,6.375 c 0.9014076,5.278043 1.8050986,10.555699 2.7050781,15.833984 1.1054687,0 2.2109375,0 3.3164062,0 C 12.830365,16.724378 16.3168,11.240898 19.800781,5.7558594 c -1.369791,0 -2.739583,0 -4.109375,0 C 13.370401,9.5173981 11.052305,13.280736 8.7324219,17.042969 8.1349928,13.280667 7.5410212,9.5178114 6.9414062,5.7558594 c -1.2408854,0 -2.4817708,0 -3.7226562,0 C 3.253906,5.9622396 3.289062,6.1686198 3.3242188,6.375 Z" />
    <rect
       style="fill:#235aff;fill-opacity:1;stroke-width:1.29084"
       id="rect943"
       width="9.2650747"
       height="7.6662278"
       x="16.799305"
       y="18.204239" />
    <path
       style="fill:none;stroke:#235aff;stroke-width:1.20024;stroke-linecap:butt;stroke-linejoin:miter;stroke-miterlimit:4;stroke-dasharray:none;stroke-opacity:1"
       d="m 18.405277,19.373425 c 0,0 -0.115033,-2.202589 0.196788,-3.095226 0.227026,-0.6499 0.576784,-1.400067 1.311921,-1.731228 0.895403,-0.403357 1.932098,-0.397331 2.762972,0 0.644664,0.308283 1.095023,0.999563 1.34576,1.668713 0.375005,1.000787 0.122965,3.203858 0.122965,3.203858"
       id="path1124"
       sodipodi:nodetypes="cssaac" />
  </g>
</svg>
