<?xml version="1.0" encoding="UTF-8" standalone="no"?>
<svg
   width="35"
   height="35"
   viewBox="0 0 48 48"
   fill="none"
   version="1.1"
   id="svg18"
   sodipodi:docname="cfile-vcs-conflict.svg"
   inkscape:version="1.1.1 (3bf5ae0d25, 2021-09-20)"
   xmlns:inkscape="http://www.inkscape.org/namespaces/inkscape"
   xmlns:sodipodi="http://sodipodi.sourceforge.net/DTD/sodipodi-0.dtd"
   xmlns="http://www.w3.org/2000/svg"
   xmlns:svg="http://www.w3.org/2000/svg">
  <defs
     id="defs22" />
  <sodipodi:namedview
     id="namedview20"
     pagecolor="#000000"
     bordercolor="#666666"
     borderopacity="1.0"
     inkscape:pageshadow="2"
     inkscape:pageopacity="0"
     inkscape:pagecheckerboard="false"
     showgrid="false"
     inkscape:zoom="8.2024385"
     inkscape:cx="7.3148979"
     inkscape:cy="3.9622364"
     inkscape:window-width="1920"
     inkscape:window-height="1001"
     inkscape:window-x="-9"
     inkscape:window-y="-9"
     inkscape:window-maximized="1"
     inkscape:current-layer="svg18" />
  <rect
     width="48"
     height="48"
     fill="white"
     fill-opacity="0.01"
     id="rect2" />
  <path
     d="m 19.670936,43.881774 h 8.562887 M 40.803941,26.89076 V 13.881774 l -9,-10.0000006 h -21 c -1.10457,0 -2.000001,0.89543 -2.000001,2 V 26.814545"
     stroke="#ffffff"
     stroke-width="3"
     stroke-linecap="round"
     stroke-linejoin="round"
     id="path2"
     sodipodi:nodetypes="cccccssc"
     style="stroke-width:3.00069;stroke-miterlimit:4;stroke-dasharray:none" />
  <path
     id="text2970"
     style="font-size:11.2889px;line-height:1.25;font-family:sans-serif;fill:#bfc9ff;fill-opacity:1;stroke-width:0.411429"
     d="m 35.594902,29.441142 c -2.934821,0.103439 -5.6028,2.323276 -6.120572,5.233451 -0.720103,3.201889 0.07537,7.267182 3.261799,8.845959 2.787338,1.374581 6.095726,0.738416 8.732564,-0.682672 0,-1.114624 0,-2.229247 0,-3.343871 -0.962184,-0.205666 -1.662016,0.248173 -2.35073,0.862543 -1.841476,1.214037 -4.987388,1.242961 -5.989202,-1.066029 -0.811231,-1.999409 -0.751133,-4.80289 1.084253,-6.22306 1.94019,-1.207528 4.464555,-0.31756 6.02261,1.129808 1.235604,0.342896 1.399757,-0.385664 1.233069,-1.445061 -0.117667,-0.839103 0.432561,-2.099303 -0.748351,-2.2667 -1.579783,-0.787706 -3.358874,-1.187716 -5.12544,-1.044368 z" />
  <path
     d="M 30.803941,3.8817734 V 13.881774 h 10"
     stroke="#ffffff"
     stroke-width="3"
     stroke-linecap="round"
     stroke-linejoin="round"
     id="path8" />
  <text
     xml:space="preserve"
     style="font-size:146.286px;line-height:1.25;font-family:sans-serif;stroke-width:1.37143"
     x="15.724138"
     y="20.571428"
     id="text3217"><tspan
       sodipodi:role="line"
       id="tspan3215"
       style="stroke-width:1.37143"
       x="15.724138"
       y="20.571428">!</tspan></text>
  <g
     id="g1154">
    <text
       xml:space="preserve"
       style="font-size:20.813px;line-height:1.25;font-family:sans-serif;fill:#ffffff;fill-opacity:1;stroke:none;stroke-width:0.650406"
       x="8.2130604"
       y="45.614185"
       id="text7085"
       transform="scale(1.0690363,0.93542194)"><tspan
         sodipodi:role="line"
         id="tspan7083"
         style="font-style:normal;font-variant:normal;font-weight:bold;font-stretch:normal;font-family:'Fira Code';-inkscape-font-specification:'Fira Code Bold';fill:#ffffff;fill-opacity:1;stroke:none;stroke-width:0.650406;stroke-opacity:1"
         x="8.2130604"
         y="45.614185">!</tspan></text>
    <path
       sodipodi:type="star"
       style="fill:none;fill-opacity:0.75;stroke:#ffffff;stroke-width:4.85737;stroke-linecap:round;stroke-miterlimit:4;stroke-dasharray:none;stroke-opacity:1"
       id="path8328"
       inkscape:flatsided="true"
       sodipodi:sides="3"
       sodipodi:cx="22.118614"
       sodipodi:cy="41.472401"
       sodipodi:r1="20.71603"
       sodipodi:r2="10.358015"
       sodipodi:arg1="-0.48603193"
       sodipodi:arg2="0.56116562"
       inkscape:rounded="0.1"
       inkscape:randomized="0"
       transform="matrix(0.61775998,0,0,-0.61775998,-0.68116884,62.17597)"
       inkscape:transform-center-x="0.12750331"
       inkscape:transform-center-y="1.585798"
       d="m 40.435591,31.795507 c 1.676087,3.172594 -15.50944,30.51307 -19.09503,30.378308 C 17.754971,62.039052 2.6701873,33.485711 4.5796903,30.44788 6.4891933,27.410049 38.759504,28.622914 40.435591,31.795507 Z" />
  </g>
</svg>
