<?xml version="1.0" encoding="UTF-8" standalone="no"?>
<svg
   width="35"
   height="35"
   viewBox="0 0 48 48"
   fill="none"
   version="1.1"
   id="svg18"
   sodipodi:docname="cfile-vcs-nochange.svg"
   inkscape:version="1.1.1 (3bf5ae0d25, 2021-09-20)"
   xmlns:inkscape="http://www.inkscape.org/namespaces/inkscape"
   xmlns:sodipodi="http://sodipodi.sourceforge.net/DTD/sodipodi-0.dtd"
   xmlns="http://www.w3.org/2000/svg"
   xmlns:svg="http://www.w3.org/2000/svg">
  <defs
     id="defs22" />
  <sodipodi:namedview
     id="namedview20"
     pagecolor="#000000"
     bordercolor="#666666"
     borderopacity="1.0"
     inkscape:pageshadow="2"
     inkscape:pageopacity="0"
     inkscape:pagecheckerboard="false"
     showgrid="false"
     inkscape:zoom="5.8"
     inkscape:cx="-0.86206897"
     inkscape:cy="-1.9827586"
     inkscape:window-width="1920"
     inkscape:window-height="1001"
     inkscape:window-x="-9"
     inkscape:window-y="-9"
     inkscape:window-maximized="1"
     inkscape:current-layer="svg18" />
  <rect
     width="48"
     height="48"
     fill="white"
     fill-opacity="0.01"
     id="rect2" />
  <path
     d="m 19.670936,43.881774 8.019705,0 m 13.1133,-17.133005 0,-12.866995 -9,-10.0000006 h -21 c -1.10457,0 -2.000001,0.89543 -2.000001,2 V 24.975371"
     stroke="#ffffff"
     stroke-width="3"
     stroke-linecap="round"
     stroke-linejoin="round"
     id="path2"
     sodipodi:nodetypes="cccccssc" />
  <path
     d="M 30.803941,3.8817734 V 13.881774 h 10"
     stroke="#ffffff"
     stroke-width="3"
     stroke-linecap="round"
     stroke-linejoin="round"
     id="path8" />
  <text
     xml:space="preserve"
     style="font-size:146.286px;line-height:1.25;font-family:sans-serif;stroke-width:1.37143"
     x="15.724138"
     y="20.571428"
     id="text3217"><tspan
       sodipodi:role="line"
       id="tspan3215"
       style="stroke-width:1.37143"
       x="15.724138"
       y="20.571428">!</tspan></text>
  <ellipse
     style="fill:none;fill-opacity:1;stroke:#ffffff;stroke-width:2.46857;stroke-linecap:round;stroke-miterlimit:4;stroke-dasharray:none;stroke-opacity:1"
     id="path17711"
     cx="12.650248"
     cy="35.586208"
     rx="10.758621"
     ry="10.604926" />
  <path
     style="fill:none;stroke:#ffffff;stroke-width:3.29142;stroke-linecap:butt;stroke-linejoin:miter;stroke-miterlimit:4;stroke-dasharray:none;stroke-opacity:1"
     d="m 6.9194448,35.470771 2.1897435,3.682749 1.6920647,0.79627 1.791615,-0.79627 5.872493,-8.062234"
     id="path1509" />
  <path
     id="text2970"
     style="font-size:11.2889px;line-height:1.25;font-family:sans-serif;fill:#bfc9ff;fill-opacity:1;stroke-width:0.411429"
     d="m 35.095995,29.124931 c -2.934821,0.103439 -5.6028,2.323276 -6.120572,5.233451 -0.720103,3.201889 0.07537,7.267182 3.261799,8.845959 2.787338,1.374581 6.095726,0.738416 8.732564,-0.682672 0,-1.114624 0,-2.229247 0,-3.343871 -0.962184,-0.205666 -1.662016,0.248173 -2.35073,0.862543 -1.841476,1.214037 -4.987388,1.242961 -5.989202,-1.066029 -0.811231,-1.999409 -0.751133,-4.80289 1.084253,-6.22306 1.94019,-1.207528 4.464555,-0.31756 6.02261,1.129808 1.235604,0.342896 1.399757,-0.385664 1.233069,-1.445061 -0.117667,-0.839103 0.432561,-2.099303 -0.748351,-2.2667 -1.579783,-0.787706 -3.358874,-1.187716 -5.12544,-1.044368 z" />
</svg>
