<?xml version="1.0" encoding="UTF-8" standalone="no"?>
<svg
   width="35"
   height="35"
   viewBox="0 0 48 48"
   fill="none"
   version="1.1"
   id="svg8"
   sodipodi:docname="headerfolder.svg"
   inkscape:version="1.1.1 (3bf5ae0d25, 2021-09-20)"
   xmlns:inkscape="http://www.inkscape.org/namespaces/inkscape"
   xmlns:sodipodi="http://sodipodi.sourceforge.net/DTD/sodipodi-0.dtd"
   xmlns="http://www.w3.org/2000/svg"
   xmlns:svg="http://www.w3.org/2000/svg">
  <defs
     id="defs12" />
  <sodipodi:namedview
     id="namedview10"
     pagecolor="#000000"
     bordercolor="#666666"
     borderopacity="1.0"
     inkscape:pageshadow="2"
     inkscape:pageopacity="0"
     inkscape:pagecheckerboard="false"
     showgrid="false"
     inkscape:zoom="11.6"
     inkscape:cx="-1.5517241"
     inkscape:cy="12.284483"
     inkscape:window-width="1920"
     inkscape:window-height="1001"
     inkscape:window-x="-9"
     inkscape:window-y="-9"
     inkscape:window-maximized="1"
     inkscape:current-layer="svg8" />
  <path
     d="M 27.817734,42 H 7 C 5.89543,42 5,41.1046 5,40 V 8 C 5,6.89543 5.89543,6 7,6 h 12 l 5,6 h 17 c 1.1046,0 2,0.8954 2,2 v 12.817734"
     fill="none"
     stroke="#ffffff"
     stroke-width="3"
     stroke-linejoin="round"
     id="path2"
     sodipodi:nodetypes="cssssccssc" />
  <path
     id="text18521"
     style="font-size:11.2889px;line-height:1.25;font-family:sans-serif;fill:#ffa8a8;fill-opacity:1;stroke-width:0.50883"
     d="m 30.891626,24.77649 c 0,5.741171 0,11.482341 0,17.22351 1.343419,0 2.686838,0 4.030259,0 0.0044,-2.951099 -0.01653,-5.902336 0.03037,-8.853205 1.117735,-0.609713 3.0842,-1.088685 3.671878,0.449493 0.275694,2.776287 0.09428,5.606647 0.139702,8.403712 1.348481,0 2.696963,0 4.045444,0 -0.101449,-3.476572 0.315519,-7.007014 -0.289616,-10.444963 -0.748641,-2.445035 -3.878708,-3.289195 -6.002038,-2.115623 -0.856205,0.438846 -1.990791,1.339232 -1.595747,-0.269425 0,-1.540427 0,-3.080855 0,-4.621282 -1.343421,0 -2.68684,0 -4.030259,0 v 0.1555 z" />
</svg>
