<?xml version="1.0" encoding="UTF-8" standalone="no"?>
<svg
   width="35"
   height="35"
   viewBox="0 0 48 48"
   fill="none"
   version="1.1"
   id="svg18"
   sodipodi:docname="hfile.svg"
   inkscape:version="1.1.1 (3bf5ae0d25, 2021-09-20)"
   xmlns:inkscape="http://www.inkscape.org/namespaces/inkscape"
   xmlns:sodipodi="http://sodipodi.sourceforge.net/DTD/sodipodi-0.dtd"
   xmlns="http://www.w3.org/2000/svg"
   xmlns:svg="http://www.w3.org/2000/svg">
  <defs
     id="defs22" />
  <sodipodi:namedview
     id="namedview20"
     pagecolor="#000000"
     bordercolor="#666666"
     borderopacity="1.0"
     inkscape:pageshadow="2"
     inkscape:pageopacity="0"
     inkscape:pagecheckerboard="false"
     showgrid="false"
     inkscape:zoom="11.6"
     inkscape:cx="-0.34482759"
     inkscape:cy="20.991379"
     inkscape:window-width="1920"
     inkscape:window-height="1001"
     inkscape:window-x="-9"
     inkscape:window-y="-9"
     inkscape:window-maximized="1"
     inkscape:current-layer="svg18" />
  <rect
     width="48"
     height="48"
     fill="white"
     fill-opacity="0.01"
     id="rect2" />
  <path
     d="M 40.803941,27.871922 V 13.881774 l -9,-10.0000006 h -21 c -1.10457,0 -2.000001,0.89543 -2.000001,2 V 41.881774 c 0,1.1046 0.8954698,2.009256 2.000001,2 l 14.108374,-0.118227"
     stroke="#ffffff"
     stroke-width="3"
     stroke-linecap="round"
     stroke-linejoin="round"
     id="path2"
     sodipodi:nodetypes="cccssssc" />
  <path
     d="M 30.803941,3.8817734 V 13.881774 h 10"
     stroke="#ffffff"
     stroke-width="3"
     stroke-linecap="round"
     stroke-linejoin="round"
     id="path8" />
  <path
     id="text18521"
     style="font-size:11.2889px;line-height:1.25;font-family:sans-serif;fill:#ffa8a8;fill-opacity:1;stroke-width:0.50883"
     d="m 28.57734,26.658264 c 0,5.741171 0,11.482341 0,17.22351 1.343419,0 2.686838,0 4.030259,0 0.0044,-2.951099 -0.01653,-5.902336 0.03037,-8.853205 1.117735,-0.609713 3.0842,-1.088685 3.671878,0.449493 0.275694,2.776287 0.09428,5.606647 0.139702,8.403712 1.348481,0 2.696963,0 4.045444,0 -0.101449,-3.476572 0.315519,-7.007014 -0.289616,-10.444963 -0.748641,-2.445035 -3.878708,-3.289195 -6.002038,-2.115623 -0.856205,0.438846 -1.990791,1.339232 -1.595747,-0.269425 0,-1.540427 0,-3.080855 0,-4.621282 -1.343421,0 -2.68684,0 -4.030259,0 v 0.1555 z" />
</svg>
