<?xml version="1.0" encoding="UTF-8" standalone="no"?>
<!-- Created with Inkscape (http://www.inkscape.org/) -->

<svg
   width="100"
   height="100"
   viewBox="0 0 26.458333 26.458333"
   version="1.1"
   id="svg5"
   inkscape:version="1.1.1 (3bf5ae0d25, 2021-09-20)"
   sodipodi:docname="hfile-git-changed.svg"
   xmlns:inkscape="http://www.inkscape.org/namespaces/inkscape"
   xmlns:sodipodi="http://sodipodi.sourceforge.net/DTD/sodipodi-0.dtd"
   xmlns:xlink="http://www.w3.org/1999/xlink"
   xmlns="http://www.w3.org/2000/svg"
   xmlns:svg="http://www.w3.org/2000/svg">
  <sodipodi:namedview
     id="namedview7"
     pagecolor="#ffffff"
     bordercolor="#666666"
     borderopacity="1.0"
     inkscape:pageshadow="2"
     inkscape:pageopacity="0.0"
     inkscape:pagecheckerboard="0"
     inkscape:document-units="px"
     showgrid="false"
     inkscape:zoom="0.25575085"
     inkscape:cx="-973.6038"
     inkscape:cy="1116.3208"
     inkscape:window-width="1920"
     inkscape:window-height="1001"
     inkscape:window-x="-9"
     inkscape:window-y="-9"
     inkscape:window-maximized="1"
     inkscape:current-layer="layer1"
     units="px"
     width="100px" />
  <defs
     id="defs2">
    <linearGradient
       inkscape:collect="always"
       id="linearGradient1420">
      <stop
         style="stop-color:#e0e0e0;stop-opacity:1;"
         offset="0"
         id="stop1416" />
      <stop
         style="stop-color:#ffffff;stop-opacity:1"
         offset="1"
         id="stop1418" />
    </linearGradient>
    <linearGradient
       id="linearGradient3056"
       inkscape:swatch="gradient">
      <stop
         style="stop-color:#45c200;stop-opacity:1"
         offset="0"
         id="stop826" />
      <stop
         style="stop-color:#53e900;stop-opacity:1"
         offset="1"
         id="stop828" />
    </linearGradient>
    <linearGradient
       id="linearGradient3056-2">
      <stop
         style="stop-color:#45c200;stop-opacity:1"
         offset="0"
         id="stop3052" />
      <stop
         style="stop-color:#5fff07;stop-opacity:1"
         offset="1"
         id="stop3054" />
    </linearGradient>
    <linearGradient
       inkscape:collect="always"
       xlink:href="#linearGradient1420"
       id="linearGradient1422"
       x1="7.8442378"
       y1="11.269956"
       x2="1.9260681"
       y2="11.269956"
       gradientUnits="userSpaceOnUse" />
  </defs>
  <g
     inkscape:label="图层 1"
     inkscape:groupmode="layer"
     id="layer1">
    <g
       id="g1755"
       transform="matrix(1.1063575,0,0,1.1063575,-1.4148159,-1.417466)">
      <path
         id="rect848-1"
         style="fill:url(#linearGradient1422);stroke:#000000;stroke-width:0.721591"
         transform="matrix(1.1,0,0,1.1,2.6932117,0.93042432)"
         d="M 1.8840514,1.3039001 H 12.125786 l 5.237068,5.830555 0.04157,14.1015569 H 1.8840514 Z"
         sodipodi:nodetypes="cccccc" />
      <path
         style="fill:none;stroke:#000000;stroke-width:0.79375;stroke-linecap:butt;stroke-linejoin:miter;stroke-miterlimit:4;stroke-dasharray:none;stroke-opacity:1"
         d="m 16.031576,2.3647144 -0.02942,6.3678902 5.790196,0.04572"
         id="path1641" />
    </g>
    <ellipse
       style="fill:#ff0000;fill-opacity:0.725296;stroke-width:0.291041;stroke-linecap:round"
       id="path857"
       cx="6.67978"
       cy="19.33"
       rx="6.638608"
       ry="7.0409479" />
    <path
       id="text4491"
       style="font-size:11.2889px;line-height:1.25;font-family:sans-serif;fill:#ffffff;fill-opacity:1;stroke-width:0.291041"
       d="m 5.2598802,14.801667 c 0.048462,2.429887 0.098911,4.859737 0.1460937,7.289649 0.7032553,0 1.4065105,0 2.1097656,0 0.057373,-2.627491 0.1089462,-5.255107 0.1654297,-7.882618 -0.810677,0 -1.6213541,0 -2.4320312,0 0.00359,0.197657 0.00716,0.395313 0.010747,0.592969 z m 1.1644531,7.394922 C 5.2150667,22.170266 4.6297099,23.91092 5.6370676,24.599614 6.5462447,25.393175 8.1067095,24.462116 7.8143724,23.28155 7.6820907,22.651209 7.0745002,22.156398 6.4243333,22.196589 Z" />
    <path
       id="text18521"
       style="font-size:11.2889px;line-height:1.25;font-family:sans-serif;fill:#ff2c2c;fill-opacity:1;stroke-width:0.327221"
       d="m 13.697559,13.152902 c 0,3.69206 0,7.384117 0,11.076174 0.86394,0 1.72787,0 2.5918,0 0.003,-1.897806 -0.0106,-3.795701 0.0195,-5.693359 0.7188,-0.392097 1.9834,-0.700116 2.36133,0.289062 0.17729,1.785387 0.0606,3.605548 0.0898,5.404297 0.86719,0 1.73437,0 2.60156,0 -0.0652,-2.23573 0.20291,-4.506102 -0.18625,-6.716994 -0.48144,-1.572364 -2.49433,-2.11523 -3.85981,-1.360524 -0.55062,0.282215 -1.28025,0.861239 -1.0262,-0.173263 0,-0.990625 0,-1.981251 0,-2.971877 -0.86394,0 -1.72787,0 -2.5918,0 v 0.1 z" />
  </g>
</svg>
