<?xml version="1.0" encoding="UTF-8" standalone="no"?>
<svg
   width="35"
   height="35"
   viewBox="0 0 48 48"
   fill="none"
   version="1.1"
   id="svg18"
   sodipodi:docname="hfile-vcs-conflict.svg"
   inkscape:version="1.1.1 (3bf5ae0d25, 2021-09-20)"
   xmlns:inkscape="http://www.inkscape.org/namespaces/inkscape"
   xmlns:sodipodi="http://sodipodi.sourceforge.net/DTD/sodipodi-0.dtd"
   xmlns="http://www.w3.org/2000/svg"
   xmlns:svg="http://www.w3.org/2000/svg">
  <defs
     id="defs22" />
  <sodipodi:namedview
     id="namedview20"
     pagecolor="#000000"
     bordercolor="#666666"
     borderopacity="1.0"
     inkscape:pageshadow="2"
     inkscape:pageopacity="0"
     inkscape:pagecheckerboard="false"
     showgrid="false"
     inkscape:zoom="11.6"
     inkscape:cx="-4.9137932"
     inkscape:cy="36.336208"
     inkscape:window-width="1920"
     inkscape:window-height="1001"
     inkscape:window-x="-9"
     inkscape:window-y="-9"
     inkscape:window-maximized="1"
     inkscape:current-layer="svg18" />
  <rect
     width="48"
     height="48"
     fill="white"
     fill-opacity="0.01"
     id="rect2" />
  <path
     d="m 19.670936,43.881774 h 6.431117 M 40.803941,26.89076 V 13.881774 l -9,-10.0000006 h -21 c -1.10457,0 -2.000001,0.89543 -2.000001,2 V 27.339903"
     stroke="#ffffff"
     stroke-width="3"
     stroke-linecap="round"
     stroke-linejoin="round"
     id="path2"
     sodipodi:nodetypes="cccccssc" />
  <path
     d="M 30.803941,3.8817734 V 13.881774 h 10"
     stroke="#ffffff"
     stroke-width="3"
     stroke-linecap="round"
     stroke-linejoin="round"
     id="path8" />
  <text
     xml:space="preserve"
     style="font-size:146.286px;line-height:1.25;font-family:sans-serif;stroke-width:1.37143"
     x="15.724138"
     y="20.571428"
     id="text3217"><tspan
       sodipodi:role="line"
       id="tspan3215"
       style="stroke-width:1.37143"
       x="15.724138"
       y="20.571428">!</tspan></text>
  <path
     id="text18521"
     style="font-size:11.2889px;line-height:1.25;font-family:sans-serif;fill:#ffa8a8;fill-opacity:1;stroke-width:0.50883"
     d="m 29.061409,26.658264 c 0,5.741171 0,11.482341 0,17.22351 1.343419,0 2.686838,0 4.030259,0 0.0044,-2.951099 -0.01653,-5.902336 0.03037,-8.853205 1.117735,-0.609713 3.0842,-1.088685 3.671878,0.449493 0.275694,2.776287 0.09428,5.606647 0.139702,8.403712 1.348481,0 2.696963,0 4.045444,0 -0.101449,-3.476572 0.315519,-7.007014 -0.289616,-10.444963 -0.748641,-2.445035 -3.878708,-3.289195 -6.002038,-2.115623 -0.856205,0.438846 -1.990791,1.339232 -1.595747,-0.269425 0,-1.540427 0,-3.080855 0,-4.621282 -1.343421,0 -2.68684,0 -4.030259,0 v 0.1555 z" />
  <g
     id="g1154"
     transform="translate(-0.20132695,-0.29469724)">
    <text
       xml:space="preserve"
       style="font-size:20.813px;line-height:1.25;font-family:sans-serif;fill:#ffffff;fill-opacity:1;stroke:none;stroke-width:0.650406"
       x="8.2130604"
       y="45.614185"
       id="text7085"
       transform="scale(1.0690363,0.93542194)"><tspan
         sodipodi:role="line"
         id="tspan7083"
         style="font-style:normal;font-variant:normal;font-weight:bold;font-stretch:normal;font-family:'Fira Code';-inkscape-font-specification:'Fira Code Bold';fill:#ffffff;fill-opacity:1;stroke:none;stroke-width:0.650406;stroke-opacity:1"
         x="8.2130604"
         y="45.614185">!</tspan></text>
    <path
       sodipodi:type="star"
       style="fill:none;fill-opacity:0.75;stroke:#ffffff;stroke-width:4.85737;stroke-linecap:round;stroke-miterlimit:4;stroke-dasharray:none;stroke-opacity:1"
       id="path8328"
       inkscape:flatsided="true"
       sodipodi:sides="3"
       sodipodi:cx="22.118614"
       sodipodi:cy="41.472401"
       sodipodi:r1="20.71603"
       sodipodi:r2="10.358015"
       sodipodi:arg1="-0.48603193"
       sodipodi:arg2="0.56116562"
       inkscape:rounded="0.1"
       inkscape:randomized="0"
       transform="matrix(0.61775998,0,0,-0.61775998,-0.68116884,62.17597)"
       inkscape:transform-center-x="0.12750331"
       inkscape:transform-center-y="1.585798"
       d="m 40.435591,31.795507 c 1.676087,3.172594 -15.50944,30.51307 -19.09503,30.378308 C 17.754971,62.039052 2.6701873,33.485711 4.5796903,30.44788 6.4891933,27.410049 38.759504,28.622914 40.435591,31.795507 Z" />
  </g>
</svg>
