<?xml version="1.0" encoding="UTF-8" standalone="no"?>
<svg
   width="35"
   height="35"
   viewBox="0 0 48 48"
   fill="none"
   version="1.1"
   id="svg18"
   sodipodi:docname="projectfile-vcs-nochange.svg"
   inkscape:version="1.1.1 (3bf5ae0d25, 2021-09-20)"
   xmlns:inkscape="http://www.inkscape.org/namespaces/inkscape"
   xmlns:sodipodi="http://sodipodi.sourceforge.net/DTD/sodipodi-0.dtd"
   xmlns="http://www.w3.org/2000/svg"
   xmlns:svg="http://www.w3.org/2000/svg">
  <defs
     id="defs22" />
  <sodipodi:namedview
     id="namedview20"
     pagecolor="#000000"
     bordercolor="#666666"
     borderopacity="1.0"
     inkscape:pageshadow="2"
     inkscape:pageopacity="0"
     inkscape:pagecheckerboard="0"
     showgrid="false"
     inkscape:zoom="0.725"
     inkscape:cx="-649.65517"
     inkscape:cy="72.413793"
     inkscape:window-width="1920"
     inkscape:window-height="1001"
     inkscape:window-x="-9"
     inkscape:window-y="-9"
     inkscape:window-maximized="1"
     inkscape:current-layer="svg18" />
  <rect
     width="48"
     height="48"
     fill="white"
     fill-opacity="0.01"
     id="rect2" />
  <path
     d="m 14,12 v 8 1 c 2.9551,0 5.6108,1.2818 7.4415,3.3198 C 23.0322,26.0906 24,28.4323 24,31 c 0,0.5789 -0.0492,1.1463 -0.1436,1.6983 -0.5143,3.0063 -2.3707,5.5546 -4.9305,7.0063 C 21.5884,40.5096 25.1224,41 29,41 c 8.2843,0 15,-2.2386 15,-5 v -8 -8 -8"
     stroke="#ffffff"
     stroke-width="3"
     stroke-linecap="round"
     stroke-linejoin="round"
     id="path4" />
  <path
     d="m 14,12 c 0,2.7614 6.7157,5 15,5 8.2843,0 15,-2.2386 15,-5 C 44,9.23858 37.2843,7 29,7 20.7157,7 14,9.23858 14,12 Z"
     fill="none"
     stroke="#ffffff"
     stroke-width="3"
     stroke-linecap="round"
     stroke-linejoin="round"
     id="path6" />
  <path
     d="m 44,28 c 0,2.7614 -6.7157,5 -15,5 -1.807,0 -3.5393,-0.1065 -5.1436,-0.3017"
     stroke="#ffffff"
     stroke-width="3"
     stroke-linecap="round"
     stroke-linejoin="round"
     id="path8" />
  <path
     d="m 44,20 c 0,2.7614 -6.7157,5 -15,5 -2.7563,0 -5.339,-0.2478 -7.5585,-0.6802"
     stroke="#ffffff"
     stroke-width="3"
     stroke-linecap="round"
     stroke-linejoin="round"
     id="path10" />
  <path
     d="m 4,31 c 0,5.5228 4.4772,10 10,10 1.7909,0 3.4719,-0.4708 4.9259,-1.2954 2.5598,-1.4517 4.4162,-4 4.9305,-7.0063 C 23.9508,32.1463 24,31.5789 24,31 24,28.4323 23.0322,26.0906 21.4415,24.3198 19.6108,22.2818 16.9551,21 14,21 8.4772,21 4,25.4772 4,31 Z"
     fill="none"
     stroke="#ffffff"
     stroke-width="3"
     stroke-linecap="round"
     stroke-linejoin="round"
     id="path12" />
  <path
     style="fill:none;stroke:#ffffff;stroke-width:3.29142;stroke-linecap:butt;stroke-linejoin:miter;stroke-miterlimit:4;stroke-dasharray:none;stroke-opacity:1"
     d="m 8.2199366,31.096392 2.1897444,3.682749 1.692065,0.79627 1.791615,-0.79627 5.872493,-8.062234"
     id="path1509" />
</svg>
