<?xml version="1.0" encoding="UTF-8" standalone="no"?>
<svg
   width="35"
   height="35"
   viewBox="0 0 48 48"
   fill="none"
   version="1.1"
   id="svg18"
   sodipodi:docname="projectfile-vcs-conflict.svg"
   inkscape:version="1.1.1 (3bf5ae0d25, 2021-09-20)"
   xmlns:inkscape="http://www.inkscape.org/namespaces/inkscape"
   xmlns:sodipodi="http://sodipodi.sourceforge.net/DTD/sodipodi-0.dtd"
   xmlns="http://www.w3.org/2000/svg"
   xmlns:svg="http://www.w3.org/2000/svg">
  <defs
     id="defs22" />
  <sodipodi:namedview
     id="namedview20"
     pagecolor="#000000"
     bordercolor="#666666"
     borderopacity="1.0"
     inkscape:pageshadow="2"
     inkscape:pageopacity="0"
     inkscape:pagecheckerboard="0"
     showgrid="false"
     inkscape:zoom="5.8"
     inkscape:cx="-39.137931"
     inkscape:cy="8.362069"
     inkscape:window-width="1920"
     inkscape:window-height="1001"
     inkscape:window-x="-9"
     inkscape:window-y="-9"
     inkscape:window-maximized="1"
     inkscape:current-layer="svg18" />
  <rect
     width="48"
     height="48"
     fill="white"
     fill-opacity="0.01"
     id="rect2" />
  <g
     id="g1154"
     transform="translate(1.2173921,-4.6690815)">
    <text
       xml:space="preserve"
       style="font-size:20.813px;line-height:1.25;font-family:sans-serif;fill:#ffffff;fill-opacity:1;stroke:none;stroke-width:0.650406"
       x="8.2130604"
       y="45.614185"
       id="text7085"
       transform="scale(1.0690363,0.93542194)"><tspan
         sodipodi:role="line"
         id="tspan7083"
         style="font-style:normal;font-variant:normal;font-weight:bold;font-stretch:normal;font-family:'Fira Code';-inkscape-font-specification:'Fira Code Bold';fill:#ffffff;fill-opacity:1;stroke:none;stroke-width:0.650406;stroke-opacity:1"
         x="8.2130604"
         y="45.614185">!</tspan></text>
    <path
       sodipodi:type="star"
       style="fill:none;fill-opacity:0.75;stroke:#ffffff;stroke-width:4.85737;stroke-linecap:round;stroke-miterlimit:4;stroke-dasharray:none;stroke-opacity:1"
       id="path8328"
       inkscape:flatsided="true"
       sodipodi:sides="3"
       sodipodi:cx="22.118614"
       sodipodi:cy="41.472401"
       sodipodi:r1="20.71603"
       sodipodi:r2="10.358015"
       sodipodi:arg1="-0.48603193"
       sodipodi:arg2="0.56116562"
       inkscape:rounded="0.1"
       inkscape:randomized="0"
       transform="matrix(0.61775998,0,0,-0.61775998,-0.68116884,62.17597)"
       inkscape:transform-center-x="0.12750331"
       inkscape:transform-center-y="1.585798"
       d="m 40.435591,31.795507 c 1.676087,3.172594 -15.50944,30.51307 -19.09503,30.378308 C 17.754971,62.039052 2.6701873,33.485711 4.5796903,30.44788 6.4891933,27.410049 38.759504,28.622914 40.435591,31.795507 Z" />
  </g>
  <path
     d="m 14,12 v 7.172414 M 18.9259,39.7046 C 21.5884,40.5096 25.1224,41 29,41 c 8.2843,0 15,-2.2386 15,-5 v -8 -8 -8"
     stroke="#ffffff"
     stroke-width="3"
     stroke-linecap="round"
     stroke-linejoin="round"
     id="path4"
     sodipodi:nodetypes="cccssccc" />
  <path
     d="m 14,12 c 0,2.7614 6.7157,5 15,5 8.2843,0 15,-2.2386 15,-5 C 44,9.23858 37.2843,7 29,7 20.7157,7 14,9.23858 14,12 Z"
     fill="none"
     stroke="#ffffff"
     stroke-width="3"
     stroke-linecap="round"
     stroke-linejoin="round"
     id="path6" />
  <path
     d="m 44,28 c 0,2.7614 -6.7157,5 -15,5 -1.807,0 -3.5393,-0.1065 -5.1436,-0.3017"
     stroke="#ffffff"
     stroke-width="3"
     stroke-linecap="round"
     stroke-linejoin="round"
     id="path8" />
  <path
     d="m 44,20 c 0,2.7614 -6.7157,5 -15,5 -2.7563,0 -5.339,-0.2478 -7.5585,-0.6802"
     stroke="#ffffff"
     stroke-width="3"
     stroke-linecap="round"
     stroke-linejoin="round"
     id="path10" />
</svg>
