<?xml version="1.0" encoding="UTF-8" standalone="no"?>
<svg
   width="35"
   height="35"
   viewBox="0 0 48 48"
   fill="none"
   version="1.1"
   id="svg8"
   sodipodi:docname="sourcefolder.svg"
   inkscape:version="1.1.1 (3bf5ae0d25, 2021-09-20)"
   xmlns:inkscape="http://www.inkscape.org/namespaces/inkscape"
   xmlns:sodipodi="http://sodipodi.sourceforge.net/DTD/sodipodi-0.dtd"
   xmlns="http://www.w3.org/2000/svg"
   xmlns:svg="http://www.w3.org/2000/svg">
  <defs
     id="defs12" />
  <sodipodi:namedview
     id="namedview10"
     pagecolor="#000000"
     bordercolor="#666666"
     borderopacity="1.0"
     inkscape:pageshadow="2"
     inkscape:pageopacity="0"
     inkscape:pagecheckerboard="false"
     showgrid="false"
     inkscape:zoom="11.6"
     inkscape:cx="-1.4655172"
     inkscape:cy="12.284483"
     inkscape:window-width="1920"
     inkscape:window-height="1001"
     inkscape:window-x="-9"
     inkscape:window-y="-9"
     inkscape:window-maximized="1"
     inkscape:current-layer="svg8" />
  <path
     d="M 30.064039,42 H 7 C 5.89543,42 5,41.1046 5,40 V 8 C 5,6.89543 5.89543,6 7,6 h 12 l 5,6 h 17 c 1.1046,0 2,0.8954 2,2 v 12.817734"
     fill="none"
     stroke="#ffffff"
     stroke-width="3"
     stroke-linejoin="round"
     id="path2"
     sodipodi:nodetypes="cssssccssc" />
  <path
     id="text2970"
     style="font-size:11.2889px;line-height:1.25;font-family:sans-serif;fill:#bfc9ff;fill-opacity:1;stroke-width:0.411429"
     d="m 37.815207,28.533799 c -2.934821,0.103439 -5.6028,2.323276 -6.120572,5.233451 -0.720103,3.201889 0.07537,7.267182 3.261799,8.845959 2.787338,1.374581 6.095726,0.738416 8.732564,-0.682672 0,-1.114624 0,-2.229247 0,-3.343871 -0.962184,-0.205666 -1.662016,0.248173 -2.35073,0.862543 -1.841476,1.214037 -4.987388,1.242961 -5.989202,-1.066029 -0.811231,-1.999409 -0.751133,-4.80289 1.084253,-6.22306 1.94019,-1.207528 4.464555,-0.31756 6.02261,1.129808 1.235604,0.342896 1.399757,-0.385664 1.233069,-1.445061 -0.117667,-0.839103 0.432561,-2.099303 -0.748351,-2.2667 -1.579783,-0.787706 -3.358874,-1.187716 -5.12544,-1.044368 z" />
</svg>
