<?xml version="1.0" encoding="UTF-8" standalone="no"?>
<!-- Created with Inkscape (http://www.inkscape.org/) -->

<svg
   width="100"
   height="100"
   viewBox="0 0 26.458333 26.458333"
   version="1.1"
   id="svg5"
   inkscape:version="1.1.1 (3bf5ae0d25, 2021-09-20)"
   sodipodi:docname="00Misc-05Gear.svg"
   xmlns:inkscape="http://www.inkscape.org/namespaces/inkscape"
   xmlns:sodipodi="http://sodipodi.sourceforge.net/DTD/sodipodi-0.dtd"
   xmlns="http://www.w3.org/2000/svg"
   xmlns:svg="http://www.w3.org/2000/svg">
  <sodipodi:namedview
     id="namedview7"
     pagecolor="#ffffff"
     bordercolor="#666666"
     borderopacity="1.0"
     inkscape:pageshadow="2"
     inkscape:pageopacity="0.0"
     inkscape:pagecheckerboard="0"
     inkscape:document-units="px"
     showgrid="false"
     inkscape:zoom="4.0920135"
     inkscape:cx="35.434878"
     inkscape:cy="75.879515"
     inkscape:window-width="1920"
     inkscape:window-height="1001"
     inkscape:window-x="-9"
     inkscape:window-y="-9"
     inkscape:window-maximized="1"
     inkscape:current-layer="layer1"
     units="px"
     width="100px"
     inkscape:snap-path-clip="true"
     inkscape:snap-tangential="true"
     inkscape:snap-perpendicular="true"
     inkscape:snap-intersection-paths="true"
     inkscape:snap-midpoints="true"
     inkscape:snap-object-midpoints="true"
     inkscape:snap-center="true" />
  <defs
     id="defs2">
    <linearGradient
       id="linearGradient3056"
       inkscape:swatch="gradient">
      <stop
         style="stop-color:#45c200;stop-opacity:1"
         offset="0"
         id="stop826" />
      <stop
         style="stop-color:#53e900;stop-opacity:1"
         offset="1"
         id="stop828" />
    </linearGradient>
    <linearGradient
       id="linearGradient3056-2">
      <stop
         style="stop-color:#45c200;stop-opacity:1"
         offset="0"
         id="stop3052" />
      <stop
         style="stop-color:#5fff07;stop-opacity:1"
         offset="1"
         id="stop3054" />
    </linearGradient>
  </defs>
  <g
     inkscape:label="图层 1"
     inkscape:groupmode="layer"
     id="layer1">
    <path
       id="path963"
       style="fill:#d3eeed;stroke:#000000;stroke-width:0.52916666;stroke-linecap:round;stroke-linejoin:round;stroke-miterlimit:4;stroke-dasharray:none;stroke-opacity:1;fill-opacity:1"
       d="M 10.299288,3.5517975 6.1636235,5.9397652 7.3568324,8.0068225 A 7.7496153,7.7496153 0 0 0 5.7403934,10.807169 H 3.3534591 v 4.775419 h 2.3869343 a 7.7496153,7.7496153 0 0 0 1.616439,2.800345 l -1.1932089,2.067058 4.1356645,2.387968 1.193726,-2.067058 a 7.7496153,7.7496153 0 0 0 1.616439,0.173633 7.7496153,7.7496153 0 0 0 1.616438,-0.173633 l 1.193726,2.067058 4.135665,-2.387968 -1.193209,-2.067058 a 7.7496153,7.7496153 0 0 0 1.616439,-2.800345 h 2.387451 V 10.807169 H 20.481612 A 7.7496153,7.7496153 0 0 0 18.863107,8.0047556 L 20.055282,5.9397652 15.919617,3.5517975 14.727442,5.6162708 A 7.7496153,7.7496153 0 0 0 13.109453,5.445222 7.7496153,7.7496153 0 0 0 11.493014,5.6193715 Z m 2.810681,6.2290769 a 3.4139671,3.4139671 0 0 1 3.413746,3.4142616 3.4139671,3.4139671 0 0 1 -3.413746,3.413745 3.4139671,3.4139671 0 0 1 -3.4142615,-3.413745 3.4139671,3.4139671 0 0 1 3.4142615,-3.4142616 z" />
  </g>
</svg>
