<?xml version="1.0" encoding="UTF-8" standalone="no"?>
<!-- Created with Inkscape (http://www.inkscape.org/) -->

<svg
   width="100"
   height="100"
   viewBox="0 0 26.458333 26.458333"
   version="1.1"
   id="svg5"
   inkscape:version="1.1.1 (3bf5ae0d25, 2021-09-20)"
   sodipodi:docname="05Run-05Options.svg"
   xmlns:inkscape="http://www.inkscape.org/namespaces/inkscape"
   xmlns:sodipodi="http://sodipodi.sourceforge.net/DTD/sodipodi-0.dtd"
   xmlns="http://www.w3.org/2000/svg"
   xmlns:svg="http://www.w3.org/2000/svg">
  <sodipodi:namedview
     id="namedview7"
     pagecolor="#ffffff"
     bordercolor="#666666"
     borderopacity="1.0"
     inkscape:pageshadow="2"
     inkscape:pageopacity="0.0"
     inkscape:pagecheckerboard="0"
     inkscape:document-units="px"
     showgrid="false"
     inkscape:zoom="0.32228251"
     inkscape:cx="58.954486"
     inkscape:cy="-17.065772"
     inkscape:window-width="1920"
     inkscape:window-height="1001"
     inkscape:window-x="-9"
     inkscape:window-y="-9"
     inkscape:window-maximized="1"
     inkscape:current-layer="layer1"
     units="px"
     width="100px" />
  <defs
     id="defs2">
    <linearGradient
       id="linearGradient3056"
       inkscape:swatch="gradient">
      <stop
         style="stop-color:#45c200;stop-opacity:1"
         offset="0"
         id="stop3052" />
      <stop
         style="stop-color:#45c200;stop-opacity:0"
         offset="1"
         id="stop3054" />
    </linearGradient>
  </defs>
  <g
     inkscape:label="图层 1"
     inkscape:groupmode="layer"
     id="layer1">
    <path
       style="fill:#1ec600;fill-opacity:1;stroke:#000000;stroke-width:0.714375;stroke-linecap:butt;stroke-linejoin:miter;stroke-miterlimit:4;stroke-dasharray:none;stroke-opacity:1"
       d="M 1.6216182,1.9138766 V 21.152965 L 18.964487,11.612921 Z"
       id="path1368"
       sodipodi:nodetypes="cccc" />
    <path
       id="path963"
       style="fill:#d3eeed;fill-opacity:1;stroke:#000000;stroke-width:0.529167;stroke-linecap:round;stroke-linejoin:round;stroke-miterlimit:4;stroke-dasharray:none;stroke-opacity:1"
       d="M 12.716656,5.700725 8.580991,8.088692 9.7742,10.15575 A 7.7496153,7.7496153 0 0 0 8.157761,12.956096 H 5.770827 v 4.775419 H 8.157761 A 7.7496153,7.7496153 0 0 0 9.7742,20.53186 l -1.193209,2.067058 4.135665,2.387968 1.193726,-2.067058 a 7.7496153,7.7496153 0 0 0 1.616439,0.173633 7.7496153,7.7496153 0 0 0 1.616438,-0.173633 l 1.193726,2.067058 4.135665,-2.387968 -1.193209,-2.067058 a 7.7496153,7.7496153 0 0 0 1.616439,-2.800345 h 2.387451 V 12.956096 H 22.89898 A 7.7496153,7.7496153 0 0 0 21.280475,10.153683 L 22.47265,8.088692 18.336985,5.700725 17.14481,7.765198 a 7.7496153,7.7496153 0 0 0 -1.617989,-0.171049 7.7496153,7.7496153 0 0 0 -1.616439,0.17415 z m 2.810681,6.229076 a 3.4139671,3.4139671 0 0 1 3.413746,3.414262 3.4139671,3.4139671 0 0 1 -3.413746,3.413745 3.4139671,3.4139671 0 0 1 -3.414261,-3.413745 3.4139671,3.4139671 0 0 1 3.414261,-3.414262 z" />
  </g>
</svg>
