<?xml version="1.0" encoding="utf-8"?>
<!-- Generator: Adobe Illustrator 26.0.0, SVG Export Plug-In . SVG Version: 6.00 Build 0)  -->
<svg version="1.1"
	 id="svg5" xmlns:inkscape="http://www.inkscape.org/namespaces/inkscape" xmlns:sodipodi="http://sodipodi.sourceforge.net/DTD/sodipodi-0.dtd" xmlns:svg="http://www.w3.org/2000/svg"
	 xmlns="http://www.w3.org/2000/svg" xmlns:xlink="http://www.w3.org/1999/xlink" x="0px" y="0px" viewBox="0 0 100 100"
	 style="enable-background:new 0 0 100 100;" xml:space="preserve">
<style type="text/css">
	.st0{fill:none;stroke:#FFFFFF;stroke-width:6;stroke-linecap:round;stroke-linejoin:round;}
	.st1{fill:#FFFFFF;}
</style>
<sodipodi:namedview  bordercolor="#666666" borderopacity="1.0" id="namedview7" inkscape:current-layer="layer1" inkscape:cx="15.514339" inkscape:cy="63.899684" inkscape:document-units="px" inkscape:pagecheckerboard="0" inkscape:pageopacity="0.0" inkscape:pageshadow="2" inkscape:snap-intersection-paths="true" inkscape:snap-midpoints="true" inkscape:window-height="1001" inkscape:window-maximized="1" inkscape:window-width="1920" inkscape:window-x="-9" inkscape:window-y="-9" inkscape:zoom="5.15652" pagecolor="#ffffff" showgrid="false" units="px" width="100px">
	</sodipodi:namedview>
<g id="layer1" inkscape:groupmode="layer" inkscape:label="闂佹悶鍎查崕鎶芥儑1">
	<g id="g3178" transform="matrix(0.9850128,0,0,1,-0.69048901,9.133259)">
		<path id="path927" sodipodi:nodetypes="sssccs" class="st0" d="M48.7,56.1c-1.5,9.6-9.2,17.5-20.5,17.5S9,65.7,7.7,56.1
			c-0.8-5.9-1.3-9.7-1.6-11.7c-0.1-1,0.7-1.9,1.7-1.9h41c1.1,0,1.9,0.9,1.7,2C50.2,46.7,49.5,50.8,48.7,56.1L48.7,56.1z"/>
		<path id="path927-1" sodipodi:nodetypes="sssccs" class="st0" d="M93.7,56.1c-1.5,9.6-9.2,17.5-20.5,17.5S54,65.7,52.7,56.1
			c-0.8-5.9-1.3-9.7-1.6-11.7c-0.1-1,0.7-1.9,1.7-1.9h41c1.1,0,1.9,0.9,1.7,2C95.2,46.7,94.5,50.8,93.7,56.1L93.7,56.1z"/>
	</g>
</g>
<path class="st1" d="M87.7,26.2H50c-2.4,0-4.4-2-4.4-4.4v-4.1c0-2.4,2-4.4,4.4-4.4h37.7c2.4,0,4.4,2,4.4,4.4v4.1
	C92.1,24.2,90.1,26.2,87.7,26.2z"/>
</svg>
