<?xml version="1.0" encoding="utf-8"?>
<!-- Generator: Adobe Illustrator 26.0.0, SVG Export Plug-In . SVG Version: 6.00 Build 0)  -->
<svg version="1.1"
	 id="svg5" xmlns:inkscape="http://www.inkscape.org/namespaces/inkscape" xmlns:sodipodi="http://sodipodi.sourceforge.net/DTD/sodipodi-0.dtd" xmlns:svg="http://www.w3.org/2000/svg"
	 xmlns="http://www.w3.org/2000/svg" xmlns:xlink="http://www.w3.org/1999/xlink" x="0px" y="0px" viewBox="0 0 100 100"
	 style="enable-background:new 0 0 100 100;" xml:space="preserve">
<style type="text/css">
	.st0{fill:none;stroke:#FFFFFF;stroke-width:7;stroke-linecap:round;stroke-miterlimit:15.1181;}
</style>
<sodipodi:namedview  bordercolor="#666666" borderopacity="1.0" id="namedview7" inkscape:current-layer="layer1" inkscape:cx="230.38793" inkscape:cy="193.54137" inkscape:document-units="px" inkscape:pagecheckerboard="0" inkscape:pageopacity="0.0" inkscape:pageshadow="2" inkscape:snap-intersection-paths="true" inkscape:snap-midpoints="true" inkscape:window-height="1001" inkscape:window-maximized="1" inkscape:window-width="1920" inkscape:window-x="-9" inkscape:window-y="-9" inkscape:zoom="1.2891301" pagecolor="#ffffff" showgrid="false" units="px" width="100px">
	</sodipodi:namedview>
<g id="layer1" inkscape:groupmode="layer" inkscape:label="闂佹悶鍎查崕鎶芥儑1">
	<path id="rect1259" class="st0" d="M17,11.7h18.8c2.7,0,5,2.2,5,5v66.5c0,2.7-2.2,5-5,5H17c-2.7,0-5-2.2-5-5V16.6
		C12,13.9,14.2,11.7,17,11.7z"/>
	<path id="rect1259-9" class="st0" d="M65.5,11.7h18.8c2.7,0,5,2.2,5,5v66.5c0,2.7-2.2,5-5,5H65.5c-2.7,0-5-2.2-5-5V16.6
		C60.5,13.9,62.7,11.7,65.5,11.7z"/>
</g>
</svg>
