<?xml version="1.0" encoding="utf-8"?>
<!-- Generator: Adobe Illustrator 26.0.0, SVG Export Plug-In . SVG Version: 6.00 Build 0)  -->
<svg version="1.1"
	 id="svg5" xmlns:inkscape="http://www.inkscape.org/namespaces/inkscape" xmlns:sodipodi="http://sodipodi.sourceforge.net/DTD/sodipodi-0.dtd" xmlns:svg="http://www.w3.org/2000/svg"
	 xmlns="http://www.w3.org/2000/svg" xmlns:xlink="http://www.w3.org/1999/xlink" x="0px" y="0px" viewBox="0 0 100 100"
	 style="enable-background:new 0 0 100 100;" xml:space="preserve">
<style type="text/css">
	.st0{fill:#FFFFFF;}
	.st1{fill:#00FFFF;stroke:#FFFFFF;stroke-width:10.6171;stroke-linecap:round;stroke-miterlimit:15.1181;}
	.st2{fill:#FF4545;stroke:#FFFFFF;stroke-width:12;stroke-linecap:round;stroke-miterlimit:15.1181;}
</style>
<sodipodi:namedview  bordercolor="#666666" borderopacity="1.0" id="namedview7" inkscape:current-layer="layer1" inkscape:cx="159.06926" inkscape:cy="144.53362" inkscape:document-units="px" inkscape:pagecheckerboard="0" inkscape:pageopacity="0.0" inkscape:pageshadow="2" inkscape:snap-intersection-paths="true" inkscape:snap-midpoints="true" inkscape:window-height="1001" inkscape:window-maximized="1" inkscape:window-width="1920" inkscape:window-x="-9" inkscape:window-y="-9" inkscape:zoom="1.8231052" pagecolor="#ffffff" showgrid="false" units="px" width="100px">
	</sodipodi:namedview>
<g id="layer1" inkscape:groupmode="layer" inkscape:label="闁搞儲鍎抽惇1">
	<g id="g836" transform="matrix(0,1,1,0,0.1145084,0.136672)">
		<path id="path4109" sodipodi:nodetypes="csscccccsscc" class="st0" d="M3.9,5.3C3.1,5.3,2.4,6,2.4,6.8c0.1,11.2-0.1-19.6,0,40.9
			c0,2.3,2.5,7.9,5.7,7.9h12.1c0.8,0,1.5,0.6,1.5,1.5V63c0,1.2,1.4,1.9,2.3,1.2l13.9-10.6c0.8-0.6,0.8-1.7,0-2.3L24,40.6
			c-1-0.7-2.3,0-2.3,1.2v5.9c0,0.8-0.6,1.5-1.5,1.5H12c-1.1,0-3-1-3.1-2.1c-0.2-4.8-0.1-33.4,0-40.2c0-0.8-0.6-1.5-1.5-1.5L3.9,5.3z
			"/>
		<path id="path5199" class="st1" d="M45.8,30.6h47.4"/>
		<path id="path5199-2" class="st1" d="M45.8,50.8h47.4"/>
		<path id="path5199-4" class="st2" d="M32,91.3h60.6"/>
		<path id="path5199-4-9" class="st2" d="M32,10.4h60.6"/>
		<path id="path5199-45" class="st1" d="M45.8,71h47.4"/>
	</g>
</g>
</svg>
