<?xml version="1.0" encoding="utf-8"?>
<!-- Generator: Adobe Illustrator 26.0.0, SVG Export Plug-In . SVG Version: 6.00 Build 0)  -->
<svg version="1.1"
	 id="svg5" inkscape:version="1.1.1 (3bf5ae0d25, 2021-09-20)" xmlns:inkscape="http://www.inkscape.org/namespaces/inkscape" xmlns:sodipodi="http://sodipodi.sourceforge.net/DTD/sodipodi-0.dtd" xmlns:svg="http://www.w3.org/2000/svg"
	 xmlns="http://www.w3.org/2000/svg" xmlns:xlink="http://www.w3.org/1999/xlink" x="0px" y="0px" viewBox="0 0 100 100"
	 style="enable-background:new 0 0 100 100;" xml:space="preserve">
<style type="text/css">
	.st0{fill:none;stroke:#FFFFFF;stroke-width:6;stroke-linecap:round;stroke-linejoin:round;}
	.st1{fill:#FFFFFF;}
</style>
<sodipodi:namedview  bordercolor="#666666" borderopacity="1.0" id="namedview7" inkscape:current-layer="layer1" inkscape:cx="-82.613856" inkscape:cy="104.14" inkscape:document-units="px" inkscape:pagecheckerboard="0" inkscape:pageopacity="0.0" inkscape:pageshadow="2" inkscape:snap-intersection-paths="true" inkscape:snap-midpoints="true" inkscape:window-height="1001" inkscape:window-maximized="1" inkscape:window-width="1920" inkscape:window-x="-9" inkscape:window-y="-9" inkscape:zoom="2.57826" pagecolor="#ffffff" showgrid="false" units="px" width="100px">
	</sodipodi:namedview>
<g id="layer1" inkscape:groupmode="layer" inkscape:label="闂佹悶鍎查崕鎶芥儑1">
	<g id="g3178" transform="matrix(0.9850128,0,0,1,-0.50499474,10.373301)">
		<path id="path927" sodipodi:nodetypes="sssccs" class="st0" d="M49.2,59.5C47.7,69.1,40,77,28.7,77S9.5,69.1,8.2,59.5
			C7.4,53.8,6.9,50.1,6.7,48c-0.1-1.1,0.8-2.1,1.9-2.1h40.6c1.2,0,2.1,1,1.9,2.2C50.7,50.4,50,54.4,49.2,59.5L49.2,59.5z"/>
		<path id="path927-1" sodipodi:nodetypes="sssccs" class="st0" d="M94.2,59.5C92.7,69.1,85,77,73.7,77s-19.2-7.9-20.5-17.5
			c-0.8-5.7-1.3-9.4-1.5-11.5c-0.1-1.1,0.8-2.1,1.9-2.1h40.6c1.2,0,2.1,1,1.9,2.2C95.7,50.4,95,54.4,94.2,59.5L94.2,59.5z"/>
	</g>
	<path id="path1359" sodipodi:nodetypes="ccccccccccccc" class="st1" d="M52,20.6v9.1c0,1,0.8,1.9,1.9,1.9h13c1,0,1.9,0.8,1.9,1.9
		v13c0,1,0.8,1.9,1.9,1.9h10.1c1,0,1.9-0.8,1.9-1.9v-13c0-1,0.8-1.9,1.9-1.9h12c1,0,1.9-0.8,1.9-1.9v-9.1c0-1-0.8-1.9-1.9-1.9h-12
		c-1,0-1.9-0.8-1.9-1.9v-13c0-1-0.8-1.9-1.9-1.9H70.7c-1,0-1.9,0.8-1.9,1.9v13c0,1-0.8,1.9-1.9,1.9h-13C52.8,18.7,52,19.5,52,20.6z"
		/>
</g>
</svg>
