<?xml version="1.0" encoding="UTF-8"?><svg width="35" height="35" viewBox="0 0 48 48" fill="none" xmlns="http://www.w3.org/2000/svg"><path d="M5 8C5 6.89543 5.89543 6 7 6H19L24 12H41C42.1046 12 43 12.8954 43 14V40C43 41.1046 42.1046 42 41 42H7C5.89543 42 5 41.1046 5 40V8Z" fill="#90b9ff" stroke="#1f74fe" stroke-width="3" stroke-linejoin="round"/><circle cx="24" cy="28" r="4" fill="#4a90e2" stroke="#ffffff" stroke-width="3"/><path d="M24 21V24" stroke="#ffffff" stroke-width="3" stroke-linecap="round" stroke-linejoin="round"/><path d="M24 32V35" stroke="#ffffff" stroke-width="3" stroke-linecap="round" stroke-linejoin="round"/><path d="M28.8281 23L26.7068 25.1213" stroke="#ffffff" stroke-width="3" stroke-linecap="round" stroke-linejoin="round"/><path d="M20.8281 31L18.7068 33.1213" stroke="#ffffff" stroke-width="3" stroke-linecap="round" stroke-linejoin="round"/><path d="M19 23L21.1213 25.1213" stroke="#ffffff" stroke-width="3" stroke-linecap="round" stroke-linejoin="round"/><path d="M27 31L29.1213 33.1213" stroke="#ffffff" stroke-width="3" stroke-linecap="round" stroke-linejoin="round"/><path d="M17 28H18.5H20" stroke="#ffffff" stroke-width="3" stroke-linecap="round" stroke-linejoin="round"/><path d="M28 28H29.5H31" stroke="#ffffff" stroke-width="3" stroke-linecap="round" stroke-linejoin="round"/></svg>