<?xml version="1.0" encoding="utf-8"?>
<!-- Generator: Adobe Illustrator 26.0.0, SVG Export Plug-In . SVG Version: 6.00 Build 0)  -->
<svg version="1.1"
	 id="svg5" xmlns:inkscape="http://www.inkscape.org/namespaces/inkscape" xmlns:sodipodi="http://sodipodi.sourceforge.net/DTD/sodipodi-0.dtd" xmlns:svg="http://www.w3.org/2000/svg"
	 xmlns="http://www.w3.org/2000/svg" xmlns:xlink="http://www.w3.org/1999/xlink" x="0px" y="0px" viewBox="0 0 100 100"
	 style="enable-background:new 0 0 100 100;" xml:space="preserve">
<style type="text/css">
	.st0{fill:#0000FF;}
	.st1{fill:#00FFFF;stroke:#90B9FF;stroke-width:10.6171;stroke-linecap:round;stroke-miterlimit:15.1181;}
	.st2{fill:#FF4545;stroke:#0000FF;stroke-width:12;stroke-linecap:round;stroke-miterlimit:15.1181;}
</style>
<sodipodi:namedview  bordercolor="#666666" borderopacity="1.0" id="namedview7" inkscape:current-layer="layer1" inkscape:cx="47.900521" inkscape:cy="39.852458" inkscape:document-units="px" inkscape:pagecheckerboard="0" inkscape:pageopacity="0.0" inkscape:pageshadow="2" inkscape:snap-intersection-paths="true" inkscape:snap-midpoints="true" inkscape:window-height="1001" inkscape:window-maximized="1" inkscape:window-width="1920" inkscape:window-x="-9" inkscape:window-y="-9" inkscape:zoom="5.1565201" pagecolor="#ffffff" showgrid="false" units="px" width="100px">
	</sodipodi:namedview>
<g id="layer1" inkscape:groupmode="layer" inkscape:label="閸ユ儳鐪1">
	<g id="g836" transform="matrix(0,1,1,0,-0.1767109,-0.051177)">
		<path id="path4109" sodipodi:nodetypes="cccccccccc" class="st0" d="M11.8,9.1v65.3c0,1-0.8,1.8-1.8,1.8H5.1
			c-1.5,0-2.3,1.7-1.4,2.8l10,13.1c0.7,0.9,2.1,0.9,2.8,0l10-13.1c0.9-1.2,0.1-2.8-1.4-2.8h-4.9c-1,0-1.8-0.8-1.8-1.8V9.1
			c0-1-0.8-1.8-1.8-1.8l0,0h-3l0,0C12.6,7.3,11.8,8.1,11.8,9.1z"/>
		<path id="path5199" class="st1" d="M45.3,29.8h47.4"/>
		<path id="path5199-2" class="st1" d="M45.3,50h47.4"/>
		<path id="path5199-4" class="st2" d="M31.4,90.4H92"/>
		<path id="path5199-4-9" class="st2" d="M31.4,9.6H92"/>
		<path id="path5199-45" class="st1" d="M45.3,70.2h47.4"/>
	</g>
</g>
</svg>
