<?xml version="1.0" encoding="utf-8"?>
<!-- Generator: Adobe Illustrator 26.0.0, SVG Export Plug-In . SVG Version: 6.00 Build 0)  -->
<svg version="1.1"
	 id="svg5" xmlns:inkscape="http://www.inkscape.org/namespaces/inkscape" xmlns:sodipodi="http://sodipodi.sourceforge.net/DTD/sodipodi-0.dtd" xmlns:svg="http://www.w3.org/2000/svg"
	 xmlns="http://www.w3.org/2000/svg" xmlns:xlink="http://www.w3.org/1999/xlink" x="0px" y="0px" viewBox="0 0 100 100"
	 style="enable-background:new 0 0 100 100;" xml:space="preserve">
<style type="text/css">
	.st0{fill:#0000FF;}
	.st1{fill:#00FFFF;stroke:#90B9FF;stroke-width:10.6171;stroke-linecap:round;stroke-miterlimit:15.1181;}
	.st2{fill:none;stroke:#90B9FF;stroke-width:10.6171;stroke-linecap:round;stroke-miterlimit:15.1181;}
	.st3{fill:#FF4545;stroke:#0000FF;stroke-width:12;stroke-linecap:round;stroke-miterlimit:15.1181;}
	.st4{fill:#0000FF;stroke:#0000FF;stroke-width:12;stroke-linecap:round;stroke-miterlimit:15.1181;}
</style>
<sodipodi:namedview  bordercolor="#666666" borderopacity="1.0" id="namedview7" inkscape:current-layer="layer1" inkscape:cx="47.706592" inkscape:cy="39.852458" inkscape:document-units="px" inkscape:pagecheckerboard="0" inkscape:pageopacity="0.0" inkscape:pageshadow="2" inkscape:snap-intersection-paths="true" inkscape:snap-midpoints="true" inkscape:window-height="1001" inkscape:window-maximized="1" inkscape:window-width="1920" inkscape:window-x="-9" inkscape:window-y="-9" inkscape:zoom="5.1565201" pagecolor="#ffffff" showgrid="false" units="px" width="100px">
	</sodipodi:namedview>
<g id="layer1" inkscape:groupmode="layer" inkscape:label="閸ユ儳鐪1">
	<path id="path4109" sodipodi:nodetypes="cccccccccc" class="st0" d="M11.9,9.5v65.3c0,1-0.8,1.8-1.8,1.8H5.2
		c-1.5,0-2.3,1.7-1.4,2.8l10,13.1c0.7,0.9,2.1,0.9,2.8,0l10-13.1c0.9-1.2,0.1-2.8-1.4-2.8h-4.9c-1,0-1.8-0.8-1.8-1.8V9.5
		c0-1-0.8-1.8-1.8-1.8l0,0h-3l0,0C12.7,7.8,11.9,8.6,11.9,9.5z"/>
	<path id="path5199" class="st1" d="M45.4,30.3h47.4"/>
	<path id="path5199-2" class="st2" d="M45.4,50.5h47.4"/>
	<path id="path5199-4" class="st3" d="M31.6,90.9h60.6"/>
	<path id="path5199-4-9" class="st4" d="M31.6,10.1h60.6"/>
	<path id="path5199-45" class="st1" d="M45.4,70.7h47.4"/>
</g>
</svg>
