<?xml version="1.0" encoding="utf-8"?>
<!-- Generator: Adobe Illustrator 26.0.0, SVG Export Plug-In . SVG Version: 6.00 Build 0)  -->
<svg version="1.1"
	 id="svg5" xmlns:inkscape="http://www.inkscape.org/namespaces/inkscape" xmlns:sodipodi="http://sodipodi.sourceforge.net/DTD/sodipodi-0.dtd" xmlns:svg="http://www.w3.org/2000/svg"
	 xmlns="http://www.w3.org/2000/svg" xmlns:xlink="http://www.w3.org/1999/xlink" x="0px" y="0px" viewBox="0 0 100 100"
	 style="enable-background:new 0 0 100 100;" xml:space="preserve">
<style type="text/css">
	.st0{fill:#0043FF;stroke:#1F74FE;stroke-width:3;stroke-linecap:round;stroke-linejoin:round;stroke-miterlimit:15.1181;}
	.st1{fill:#90B9FF;stroke:#1F74FE;stroke-width:3;stroke-linecap:round;stroke-linejoin:round;stroke-miterlimit:15.1181;}
	.st2{fill:#FFFFFF;fill-opacity:1.000000e-02;}
	.st3{fill:#90B9FF;stroke:#FFFFFF;stroke-width:2.1875;stroke-linejoin:round;stroke-miterlimit:2.9167;}
</style>
<sodipodi:namedview  bordercolor="#666666" borderopacity="1.0" id="namedview7" inkscape:current-layer="layer1" inkscape:cx="133.42331" inkscape:cy="71.172029" inkscape:document-units="px" inkscape:pagecheckerboard="0" inkscape:pageopacity="0.0" inkscape:pageshadow="2" inkscape:window-height="1001" inkscape:window-maximized="1" inkscape:window-width="1920" inkscape:window-x="-9" inkscape:window-y="-9" inkscape:zoom="2.5782601" pagecolor="#ffffff" showgrid="false" units="px" width="100px">
	</sodipodi:namedview>
<g id="layer1" inkscape:groupmode="layer" inkscape:label="闂備焦鎮堕崕鏌ュ磿閹惰姤鍎">
	<path id="rect7840" sodipodi:nodetypes="ccccc" class="st0" d="M14,3.1l23.7,2.2c4.8,0.4,8.6,4.3,9.1,9.1L48.9,38
		c0.6,6.2-4.7,11.5-10.9,10.9l-23.7-2.2c-4.8-0.4-8.6-4.3-9.1-9.1L3.1,14C2.5,7.7,7.7,2.5,14,3.1z"/>
	<path id="rect7840-8" sodipodi:nodetypes="ccccc" class="st1" d="M86,3.1L62.3,5.2c-4.8,0.4-8.6,4.3-9.1,9.1L51.1,38
		c-0.6,6.2,4.7,11.5,10.9,10.9l23.7-2.2c4.8-0.4,8.6-4.3,9.1-9.1L96.9,14C97.5,7.7,92.3,2.5,86,3.1z"/>
	<path id="rect7840-8-7" sodipodi:nodetypes="ccccc" class="st0" d="M86,96.9l-23.7-2.2c-4.8-0.4-8.6-4.3-9.1-9.1L51.1,62
		c-0.6-6.2,4.7-11.5,10.9-10.9l23.7,2.2c4.8,0.4,8.6,4.3,9.1,9.1L96.9,86C97.5,92.3,92.3,97.5,86,96.9z"/>
	<path id="rect7840-8-7-5" sodipodi:nodetypes="ccccc" class="st1" d="M14,96.9l23.7-2.2c4.8-0.4,8.6-4.3,9.1-9.1L48.9,62
		c0.6-6.2-4.7-11.5-10.9-10.9l-23.7,2.2c-4.8,0.4-8.6,4.3-9.1,9.1L3.1,86C2.5,92.3,7.7,97.5,14,96.9z"/>
</g>
<rect x="77.9" y="30.9" class="st2" width="35" height="35"/>
<path class="st3" d="M63.7,74.4V63.2c0-3,3-4.9,5.3-3.3l7.8,5.4l9.4,6.5c1.8,1.3,1.8,3.9,0,5.2l-9.4,6.5L69,88.9
	c-2.3,1.6-5.3-0.2-5.3-3.3V74.4z"/>
</svg>
