<?xml version="1.0" encoding="utf-8"?>
<!-- Generator: Adobe Illustrator 26.0.0, SVG Export Plug-In . SVG Version: 6.00 Build 0)  -->
<svg version="1.1"
	 id="svg5" xmlns:inkscape="http://www.inkscape.org/namespaces/inkscape" xmlns:sodipodi="http://sodipodi.sourceforge.net/DTD/sodipodi-0.dtd" xmlns:svg="http://www.w3.org/2000/svg"
	 xmlns="http://www.w3.org/2000/svg" xmlns:xlink="http://www.w3.org/1999/xlink" x="0px" y="0px" viewBox="0 0 100 100"
	 style="enable-background:new 0 0 100 100;" xml:space="preserve">
<style type="text/css">
	.st0{fill:#0000FF;}
	.st1{fill:#00FFFF;stroke:#90B9FF;stroke-width:10.6171;stroke-linecap:round;stroke-miterlimit:15.1181;}
	.st2{fill:#FF4545;stroke:#0000FF;stroke-width:12;stroke-linecap:round;stroke-miterlimit:15.1181;}
</style>
<sodipodi:namedview  bordercolor="#666666" borderopacity="1.0" id="namedview7" inkscape:current-layer="layer1" inkscape:cx="-1123.3581" inkscape:cy="138.22571" inkscape:document-units="px" inkscape:pagecheckerboard="0" inkscape:pageopacity="0.0" inkscape:pageshadow="2" inkscape:snap-intersection-paths="true" inkscape:snap-midpoints="true" inkscape:window-height="1001" inkscape:window-maximized="1" inkscape:window-width="1920" inkscape:window-x="-9" inkscape:window-y="-9" inkscape:zoom="0.22788815" pagecolor="#ffffff" showgrid="false" units="px" width="100px">
	</sodipodi:namedview>
<g id="layer1" inkscape:groupmode="layer" inkscape:label="閸ユ儳鐪1">
	<path id="path4109" sodipodi:nodetypes="csscccccsscc" class="st0" d="M4.1,5c-1.1,0-2,0.9-2,2c0.1,9.6-0.1-19.1,0,40.4
		c0,2.3,2.5,7.9,5.7,7.9h11.6c1.1,0,2,0.9,2,2v4.2c0,1.7,1.9,2.6,3.2,1.6L37,53.6c1.1-0.8,1.1-2.4,0-3.2L24.5,41
		c-1.3-1-3.2-0.1-3.2,1.6v4.2c0,1.1-0.9,2-2,2h-7.7c-1.1,0-3-1-3.1-2.1C8.3,42,8.5,14.7,8.6,7c0-1.1-0.9-2-2-2H4.1z"/>
	<path id="path5199" class="st1" d="M45.4,30.3h47.4"/>
	<path id="path5199-2" class="st1" d="M45.4,50.5h47.4"/>
	<path id="path5199-4" class="st2" d="M31.6,90.9h60.6"/>
	<path id="path5199-4-9" class="st2" d="M31.6,10.1h60.6"/>
	<path id="path5199-45" class="st1" d="M45.4,70.7h47.4"/>
</g>
</svg>
