<?xml version="1.0" encoding="utf-8"?>
<!-- Generator: Adobe Illustrator 26.0.0, SVG Export Plug-In . SVG Version: 6.00 Build 0)  -->
<svg version="1.1"
	 id="svg5" sodipodi:docname="red_panda_dev_cpp_icon_rigo.svg" xmlns:inkscape="http://www.inkscape.org/namespaces/inkscape" xmlns:sodipodi="http://sodipodi.sourceforge.net/DTD/sodipodi-0.dtd" xmlns:svg="http://www.w3.org/2000/svg"
	 xmlns="http://www.w3.org/2000/svg" xmlns:xlink="http://www.w3.org/1999/xlink" x="0px" y="0px" viewBox="0 0 256 256"
	 style="enable-background:new 0 0 256 256;" xml:space="preserve">
<style type="text/css">
	.st0{fill:url(#path857_00000079472185701665272230000014018459264665067957_);}
	.st1{fill:url(#path859_00000095337088612261992880000014859891262248308116_);}
	.st2{fill:url(#path861_00000125593990106374214140000011571418808840126382_);}
	.st3{fill:url(#path863_00000069375629379878230920000008715965074725633689_);}
	.st4{fill:url(#path865_00000124129936867287947440000009427892456853721234_);}
	.st5{fill:url(#path871_00000150075400912833851750000001540874641410652095_);}
	.st6{fill:url(#path873_00000057132498668222856870000010359011396155101321_);}
	.st7{fill:url(#path875_00000037686595164786426090000014457617343458270654_);}
	.st8{fill:url(#path877_00000035498871148331106330000001611731750219736704_);}
	.st9{fill:url(#circle879_00000082361639536815121960000010539976844501957786_);}
	.st10{fill:url(#circle881_00000163059686811613264300000014932524939031157667_);}
	.st11{fill:url(#path867_00000030484609440519301580000013376102726666958997_);}
	.st12{fill-rule:evenodd;clip-rule:evenodd;fill:url(#rect2904_00000168834468148495988540000008349961507799770259_);}
	.st13{fill:url(#path869_00000170280660539014856850000000892387112852614815_);}
	.st14{fill:none;stroke:#FFFFFF;stroke-width:19.5906;stroke-linejoin:round;stroke-miterlimit:15.1181;}
	.st15{fill:none;stroke:#FFFFFF;stroke-width:16.3255;stroke-linejoin:round;stroke-miterlimit:15.1181;}
	.st16{fill-rule:evenodd;clip-rule:evenodd;fill:#FFFBF8;}
</style>
<sodipodi:namedview  bordercolor="#eeeeee" borderopacity="1" id="namedview7" inkscape:current-layer="layer1" inkscape:cx="107.08829" inkscape:cy="184.84059" inkscape:document-units="mm" inkscape:guide-bbox="true" inkscape:pagecheckerboard="0" inkscape:pageopacity="0" inkscape:pageshadow="0" inkscape:snap-global="true" inkscape:snap-nodes="false" inkscape:window-height="1021" inkscape:window-maximized="1" inkscape:window-width="1852" inkscape:window-x="68" inkscape:window-y="30" inkscape:zoom="2.096401" pagecolor="#505050" showgrid="false" showguides="true" units="px" width="256px">
	</sodipodi:namedview>
<g id="layer1" inkscape:groupmode="layer" inkscape:label="鍥惧眰 1">
	
		<linearGradient id="path857_00000034063535589600706130000007034968164089562785_" gradientUnits="userSpaceOnUse" x1="-665.2689" y1="575.7051" x2="-678.6863" y2="586.9173" gradientTransform="matrix(5.5523 0 0 -5.5523 3777.8059 3262.7627)">
		<stop  offset="0" style="stop-color:#FFDA94"/>
		<stop  offset="1" style="stop-color:#FFF0CE"/>
	</linearGradient>
	<path id="path857" style="fill:url(#path857_00000034063535589600706130000007034968164089562785_);" d="M95.5,29.3
		c-12.7-12.7-58-30.4-70.7-17.7C12,24.4,28.3,64.1,41.1,76.9c12.7,12.7,26.7,3.2,39.4-9.6C93.2,54.6,108.2,42,95.5,29.3z"/>
	
		<linearGradient id="path859_00000168834237046707878360000003238795722808356793_" gradientUnits="userSpaceOnUse" x1="-669.6489" y1="577.9496" x2="-669.6489" y2="586.0004" gradientTransform="matrix(5.5523 0 0 -5.5523 3777.8059 3262.7627)">
		<stop  offset="2.000000e-03" style="stop-color:#454545"/>
		<stop  offset="1.300000e-02" style="stop-color:#464646"/>
		<stop  offset="0.874" style="stop-color:#626262"/>
		<stop  offset="1" style="stop-color:#6D6D6D"/>
	</linearGradient>
	<path id="path859" style="fill:url(#path859_00000168834237046707878360000003238795722808356793_);" d="M55.3,60.2
		c-5-6.8-8.7-14.4-11.2-22.4c-0.9-2.9,0.6-5.9,3.5-6.9c1-0.3,2.1-0.4,3.1-0.1c8.7,2.4,17.1,5.9,24.9,10.5c-2.3,2.5-5.2,5.4-7.3,7.4
		l-3.2,3.2C62.1,55.1,58.8,57.8,55.3,60.2z"/>
	
		<linearGradient id="path861_00000150098823363784357690000014666925772797490827_" gradientUnits="userSpaceOnUse" x1="-674.7152" y1="537.8633" x2="-662.4479" y2="550.5136" gradientTransform="matrix(5.3403 -1.5197 -1.5197 -5.3403 4601.6333 1919.3066)">
		<stop  offset="0" style="stop-color:#FFDA94"/>
		<stop  offset="1" style="stop-color:#FFF0CE"/>
	</linearGradient>
	<path id="path861" style="fill:url(#path861_00000150098823363784357690000014666925772797490827_);" d="M156.3,42.1
		c8.8-15.7,47.4-45.1,63.2-36.4c15.7,8.8,10.9,51.5,2.2,67.2c-8.8,15.7-24.8,10.4-40.5,1.6C165.4,65.8,147.6,57.8,156.3,42.1z"/>
	
		<linearGradient id="path863_00000020377571684220052840000016801692718710266531_" gradientUnits="userSpaceOnUse" x1="-671.0651" y1="539.8998" x2="-671.0651" y2="547.9506" gradientTransform="matrix(5.3403 -1.5197 -1.5197 -5.3403 4601.6333 1919.3066)">
		<stop  offset="2.000000e-03" style="stop-color:#454545"/>
		<stop  offset="1.300000e-02" style="stop-color:#464646"/>
		<stop  offset="0.874" style="stop-color:#626262"/>
		<stop  offset="1" style="stop-color:#6D6D6D"/>
	</linearGradient>
	<path id="path863" style="fill:url(#path863_00000020377571684220052840000016801692718710266531_);" d="M203.4,60.8
		c-4.1-1.3-8-3.1-11.7-5.3l-4-2.2c-2.6-1.4-6.1-3.4-9-5.1c6.2-6.5,13.3-12.2,21.1-16.9c2.6-1.5,5.9-0.7,7.5,1.9
		c0.5,0.9,0.8,1.9,0.8,3C207.9,44.6,206.4,52.9,203.4,60.8z"/>
	
		<linearGradient id="path865_00000149346361824158799030000000210794220036775041_" gradientUnits="userSpaceOnUse" x1="-665.8525" y1="589.6023" x2="-649.3982" y2="544.3971" gradientTransform="matrix(5.5523 0 0 -5.5523 3777.8059 3262.7627)">
		<stop  offset="0" style="stop-color:#E78023"/>
		<stop  offset="0.51" style="stop-color:#B85515"/>
		<stop  offset="1" style="stop-color:#B44017"/>
	</linearGradient>
	<path id="path865" style="fill:url(#path865_00000149346361824158799030000000210794220036775041_);" d="M231.4,120.4
		c0.3,16.2-6.8,31.6-19.3,41.8c-8.5,7-18.3,12.3-28.8,15.6h-0.1c-17.9,5.5-36.5,8.2-55.2,7.9c-18.7,0.3-37.3-2.4-55.2-7.9
		c-10.5-3.3-20.3-8.6-28.8-15.6c-12.5-10.2-19.6-25.7-19.3-41.8c0-45,46.3-97.9,103.3-97.9S231.4,75.4,231.4,120.4L231.4,120.4z"/>
	<g id="g15247" transform="translate(0.43089267)">
		
			<linearGradient id="path871_00000012459414105996944470000005970745765933107386_" gradientUnits="userSpaceOnUse" x1="-663.1644" y1="547.653" x2="-663.1644" y2="588.9494" gradientTransform="matrix(5.5523 0 0 -5.4119 3783.5125 3158.0239)">
			<stop  offset="0" style="stop-color:#FFDA94"/>
			<stop  offset="1" style="stop-color:#FFF0CE"/>
		</linearGradient>
		<path id="path871" style="fill:url(#path871_00000012459414105996944470000005970745765933107386_);" d="M115,84.6
			c0-11.7-7.3-21.2-16.3-21.2s-10.9,9.5-10.9,21.2c0,11.7,1.9,21.2,10.9,21.2C107.7,105.8,115,96.3,115,84.6z"/>
		
			<linearGradient id="path873_00000077309608536084541610000011467840060844850314_" gradientUnits="userSpaceOnUse" x1="-653.3735" y1="547.653" x2="-653.3735" y2="588.9494" gradientTransform="matrix(5.5523 0 0 -5.4119 3781.4846 3158.0239)">
			<stop  offset="0" style="stop-color:#FFDA94"/>
			<stop  offset="1" style="stop-color:#FFF0CE"/>
		</linearGradient>
		<path id="path873" style="fill:url(#path873_00000077309608536084541610000011467840060844850314_);" d="M140.1,84.6
			c0-11.7,7.3-21.2,16.3-21.2s10.9,9.5,10.9,21.2c0,11.7-1.9,21.2-10.9,21.2S140.1,96.3,140.1,84.6z"/>
	</g>
	
		<linearGradient id="path875_00000012438967508245925790000000150848428651783357_" gradientUnits="userSpaceOnUse" x1="-670.625" y1="549.5406" x2="-670.625" y2="590.837" gradientTransform="matrix(5.5523 0 0 -5.5523 3776.2954 3238.458)">
		<stop  offset="0" style="stop-color:#FFDA94"/>
		<stop  offset="1" style="stop-color:#FFF0CE"/>
	</linearGradient>
	<path id="path875" style="fill:url(#path875_00000012438967508245925790000000150848428651783357_);" d="M71.4,154
		c-10.5-3.3-20.3-8.6-28.8-15.6c-4.8-9.7-7.7-20.2-8.4-30.9c0-9,7.3-16.3,16.3-16.3s16.3,7.3,16.3,16.3l0,0c0,1.5-0.3,3.1-0.7,4.6
		C63,130.9,65.5,144.2,71.4,154L71.4,154z"/>
	
		<linearGradient id="path877_00000176722747982921304210000013925318523057320615_" gradientUnits="userSpaceOnUse" x1="-644.0273" y1="549.5406" x2="-644.0273" y2="590.837" gradientTransform="matrix(5.5523 0 0 -5.5523 3776.2954 3238.458)">
		<stop  offset="0" style="stop-color:#FFDA94"/>
		<stop  offset="1" style="stop-color:#FFF0CE"/>
	</linearGradient>
	<path id="path877" style="fill:url(#path877_00000176722747982921304210000013925318523057320615_);" d="M219.1,107.5
		c-0.7,10.8-3.6,21.3-8.4,30.9c-8.5,7-18.3,12.3-28.8,15.6c5.9-9.8,8.4-23.1,5.3-41.9c-0.5-1.5-0.7-3-0.7-4.6
		c0-9,7.3-16.3,16.3-16.3S219.1,98.5,219.1,107.5L219.1,107.5z"/>
	<g id="g15243" transform="translate(0.28080355)">
		
			<linearGradient id="circle879_00000111157834133631033160000002634097376728334725_" gradientUnits="userSpaceOnUse" x1="-664.4799" y1="558.8656" x2="-664.4799" y2="577.6946" gradientTransform="matrix(5.5523 0 0 -5.5523 3781.7695 3246.3733)">
			<stop  offset="2.000000e-03" style="stop-color:#454545"/>
			<stop  offset="1.300000e-02" style="stop-color:#464646"/>
			<stop  offset="0.874" style="stop-color:#626262"/>
			<stop  offset="1" style="stop-color:#6D6D6D"/>
		</linearGradient>
		
			<circle id="circle879" style="fill:url(#circle879_00000111157834133631033160000002634097376728334725_);" cx="92.4" cy="98.9" r="10.9"/>
		
			<linearGradient id="circle881_00000173123414803021856940000015680239824249586843_" gradientUnits="userSpaceOnUse" x1="-650.7444" y1="558.866" x2="-650.7444" y2="577.6949" gradientTransform="matrix(5.5523 0 0 -5.5523 3776.2341 3246.4817)">
			<stop  offset="2.000000e-03" style="stop-color:#454545"/>
			<stop  offset="1.300000e-02" style="stop-color:#464646"/>
			<stop  offset="0.874" style="stop-color:#626262"/>
			<stop  offset="1" style="stop-color:#6D6D6D"/>
		</linearGradient>
		
			<circle id="circle881" style="fill:url(#circle881_00000173123414803021856940000015680239824249586843_);" cx="163.1" cy="99" r="10.9"/>
	</g>
	
		<linearGradient id="path867_00000171683269896311956840000015594371936249686416_" gradientUnits="userSpaceOnUse" x1="-657.3262" y1="549.5406" x2="-657.3262" y2="590.837" gradientTransform="matrix(5.5523 0 0 -5.5523 3776.2954 3238.458)">
		<stop  offset="0" style="stop-color:#FFDA94"/>
		<stop  offset="1" style="stop-color:#FFF0CE"/>
	</linearGradient>
	<path id="path867" style="fill:url(#path867_00000171683269896311956840000015594371936249686416_);" d="M126.6,102
		c-13.1,0-43.5,16.3-43.5,40.8c0,16,29.9,24.5,43.5,24.5s43.5-8.5,43.5-24.5C170.1,118.4,139.7,102,126.6,102z"/>
	
		<linearGradient id="rect2904_00000052062120288633231140000000021604760474859161_" gradientUnits="userSpaceOnUse" x1="-577.1571" y1="500.5182" x2="-577.1571" y2="525.3031" gradientTransform="matrix(3.7795 0 0 -3.7795 2309.7874 2117.5039)">
		<stop  offset="0" style="stop-color:#CF5400"/>
		<stop  offset="1" style="stop-color:#EE6000"/>
	</linearGradient>
	
		<path id="rect2904" sodipodi:nodetypes="cssssssc" style="fill-rule:evenodd;clip-rule:evenodd;fill:url(#rect2904_00000052062120288633231140000000021604760474859161_);" d="
		M128,121.4c111.7,0,120.9,32.8,120.8,43.1l-0.8,66.1c-0.1,10.3-8.3,18.5-18.5,18.5h-203c-10.3,0-18.6-8.3-18.5-18.5l0.8-66.1
		C8.9,154.2,16.3,121.4,128,121.4z"/>
	
		<linearGradient id="path869_00000067916201537813150440000002230013757053274015_" gradientUnits="userSpaceOnUse" x1="-657.3272" y1="558.7941" x2="-657.3272" y2="577.6231" gradientTransform="matrix(5.5523 0 0 -5.5523 3776.5796 3226.876)">
		<stop  offset="2.000000e-03" style="stop-color:#454545"/>
		<stop  offset="1.300000e-02" style="stop-color:#464646"/>
		<stop  offset="0.874" style="stop-color:#626262"/>
		<stop  offset="1" style="stop-color:#6D6D6D"/>
	</linearGradient>
	<path id="path869" style="fill:url(#path869_00000067916201537813150440000002230013757053274015_);" d="M143.2,113.8
		c-0.8,9-8.8,15.7-17.8,14.8c-7.9-0.7-14.1-7-14.8-14.8c0-6.5,7.3-6.8,16.3-6.8S143.2,107.5,143.2,113.8L143.2,113.8z"/>
	<path id="path10003" sodipodi:nodetypes="ccssc" class="st14" d="M50.5,176.2v41.1h3.3c7.5,0,30.5,1.6,31.7-24.2
		c1.6-34.5-15.3-31.6-44.4-31.5"/>
	<path id="path11872" sodipodi:nodetypes="cccc" class="st15" d="M148.2,159.7l-36.7,0v59.5l37.5,0"/>
	<path id="rect11978" sodipodi:nodetypes="ccccc" class="st16" d="M124.7,181h23.5v16.8h-23.5V181z"/>
	<path id="rect13089" sodipodi:nodetypes="ccccc" class="st16" d="M157.2,151.9h19.2l23.5,75.4h-19.2L157.2,151.9z"/>
	<path id="path13454" sodipodi:nodetypes="ccccc" class="st16" d="M207.6,151.9l-13.7,38l8.9,28.7l23.9-66.7H207.6z"/>
</g>
</svg>
