<?xml version="1.0" encoding="UTF-8" standalone="no"?>
<!-- Created with Inkscape (http://www.inkscape.org/) -->

<svg
   width="100"
   height="100"
   viewBox="0 0 26.458333 26.458333"
   version="1.1"
   id="svg5"
   inkscape:version="1.1.1 (3bf5ae0d25, 2021-09-20)"
   sodipodi:docname="folder-vcs-conflict.svg"
   xmlns:inkscape="http://www.inkscape.org/namespaces/inkscape"
   xmlns:sodipodi="http://sodipodi.sourceforge.net/DTD/sodipodi-0.dtd"
   xmlns="http://www.w3.org/2000/svg"
   xmlns:svg="http://www.w3.org/2000/svg">
  <sodipodi:namedview
     id="namedview7"
     pagecolor="#ffffff"
     bordercolor="#666666"
     borderopacity="1.0"
     inkscape:pageshadow="2"
     inkscape:pageopacity="0.0"
     inkscape:pagecheckerboard="0"
     inkscape:document-units="px"
     showgrid="false"
     inkscape:zoom="0.5115017"
     inkscape:cx="-658.84434"
     inkscape:cy="-333.33222"
     inkscape:window-width="1920"
     inkscape:window-height="1001"
     inkscape:window-x="-9"
     inkscape:window-y="-9"
     inkscape:window-maximized="1"
     inkscape:current-layer="layer1"
     units="px"
     width="100px" />
  <defs
     id="defs2">
    <linearGradient
       id="linearGradient3056"
       inkscape:swatch="gradient">
      <stop
         style="stop-color:#45c200;stop-opacity:1"
         offset="0"
         id="stop826" />
      <stop
         style="stop-color:#53e900;stop-opacity:1"
         offset="1"
         id="stop828" />
    </linearGradient>
    <linearGradient
       id="linearGradient3056-2">
      <stop
         style="stop-color:#45c200;stop-opacity:1"
         offset="0"
         id="stop3052" />
      <stop
         style="stop-color:#5fff07;stop-opacity:1"
         offset="1"
         id="stop3054" />
    </linearGradient>
  </defs>
  <g
     inkscape:label="图层 1"
     inkscape:groupmode="layer"
     id="layer1">
    <g
       id="g929">
      <path
         id="rect934"
         style="fill:#fcbc4c;fill-opacity:1;stroke:#000000;stroke-width:0.264583;stroke-miterlimit:4;stroke-dasharray:none"
         d="m 23.25086,19.940626 0.02129,-5.348279 c -0.02157,-1.176532 -1.20298,-1.844222 -2.462226,-1.92922 l -0.0078,-10.8812511 c 0.06287,-0.93528196 0.02037,-0.88955496 -0.860969,-0.88955496 H 6.4328923 V 21.6662 L 20.623933,21.62608 c 1.6677,-0.09916 2.57977,-0.603319 2.626927,-1.685458 z"
         sodipodi:nodetypes="ccccccccc" />
      <path
         style="fill:#fdd99b;fill-opacity:1;stroke:#000000;stroke-width:0.200279;stroke-linecap:butt;stroke-linejoin:miter;stroke-miterlimit:4;stroke-dasharray:none;stroke-opacity:1"
         d="M 6.4243333,0.89348134 V 21.667422 l 6.1295627,3.630798 c 0.501856,0.355154 0.457316,0.283463 0.458431,-0.602532 l 0.02342,-18.6159783 c 0.04803,-0.8264309 -0.02852,-0.8256775 -0.44161,-1.0993086 z"
         id="path6014"
         sodipodi:nodetypes="ccccccc" />
    </g>
    <g
       id="g9291"
       transform="translate(0.06377054,0.06789732)">
      <path
         sodipodi:type="star"
         style="fill:#ffc04e;fill-opacity:0.75;stroke:none;stroke-width:3;stroke-linecap:round"
         id="path8328"
         inkscape:flatsided="true"
         sodipodi:sides="3"
         sodipodi:cx="22.118614"
         sodipodi:cy="41.472401"
         sodipodi:r1="20.71603"
         sodipodi:r2="10.358015"
         sodipodi:arg1="-0.48603193"
         sodipodi:arg2="0.56116562"
         inkscape:rounded="0.1"
         inkscape:randomized="0"
         transform="matrix(0.37835416,0,0,-0.37835416,-1.3689609,37.07614)"
         inkscape:transform-center-x="0.40477197"
         inkscape:transform-center-y="5.0342776"
         d="m 40.435591,31.795507 c 1.676087,3.172594 -15.50944,30.51307 -19.09503,30.378308 C 17.754971,62.039052 2.6701873,33.485711 4.5796903,30.44788 6.4891933,27.410049 38.759504,28.622914 40.435591,31.795507 Z" />
      <path
         id="text4491"
         style="font-size:11.2889px;line-height:1.25;font-family:sans-serif;fill:#000000;fill-opacity:1;stroke-width:0.276489"
         d="m 5.6926071,16.153074 c 0.046039,2.308393 0.093965,4.196368 0.138789,6.504784 H 7.8195087 C 7.8740097,20.161742 7.939172,18.085889 7.9928318,15.589754 H 5.682402 c 0.00341,0.187774 0.0068,0.375547 0.01021,0.56332 z M 6.7988376,23.17825 C 5.6500342,23.153243 5.0939453,24.806865 6.0509351,25.461124 6.9146531,26.215007 8.3970948,25.330501 8.1193747,24.208963 7.9937068,23.610139 7.4164963,23.140069 6.7988376,23.17825 Z"
         sodipodi:nodetypes="ccccccccccc" />
    </g>
  </g>
</svg>
